<svg xmlns="http://www.w3.org/2000/svg" width="393.094" height="394.512" viewBox="0 0 393.094 394.512">
  <g id="Group_14164" data-name="Group 14164" transform="translate(9577.506 6233.854)">
    <g id="Group_14359" data-name="Group 14359" transform="translate(-9577.506 -6190.432)">
      <g id="freepik--background-complete--inject-48" opacity="0.15">
        <rect id="Rectangle_5774" data-name="Rectangle 5774" width="48.05" height="56.935" transform="translate(11.816 98.634)" fill="#ebebeb"/>
        <path id="Path_22092" data-name="Path 22092" d="M74.962,166.911A1.461,1.461,0,1,1,73.5,165.45,1.461,1.461,0,0,1,74.962,166.911Z" transform="translate(-37.664 -60.591)" fill="#c7c7c7"/>
        <path id="Path_22093" data-name="Path 22093" d="M53.29,174.83a37.5,37.5,0,0,1,10.651,0,32.22,32.22,0,0,1-5.321.38,33.2,33.2,0,0,1-5.33-.38Z" transform="translate(-34.751 -61.99)" fill="#dbdbdb"/>
        <path id="Path_22094" data-name="Path 22094" d="M53.29,179.928a55.507,55.507,0,0,1,6.9-.389,55.451,55.451,0,0,1,6.892.389,57.122,57.122,0,0,1-6.892.38,57.158,57.158,0,0,1-6.9-.38Z" transform="translate(-34.751 -62.78)" fill="#dbdbdb"/>
        <path id="Path_22095" data-name="Path 22095" d="M53.29,185a47.625,47.625,0,0,1,6.385-.38,46.322,46.322,0,0,1,6.394.38,53.9,53.9,0,0,1-12.779,0Z" transform="translate(-34.751 -63.569)" fill="#dbdbdb"/>
        <path id="Path_22096" data-name="Path 22096" d="M53.29,190.08a53.9,53.9,0,0,1,12.779,0,46.317,46.317,0,0,1-6.394.38A47.63,47.63,0,0,1,53.29,190.08Z" transform="translate(-34.751 -64.359)" fill="#dbdbdb"/>
        <path id="Path_22097" data-name="Path 22097" d="M53.29,195.16a40.762,40.762,0,0,1,11.107,0,39.881,39.881,0,0,1-11.107,0Z" transform="translate(-34.751 -65.149)" fill="#dbdbdb"/>
        <path id="Path_22098" data-name="Path 22098" d="M53.29,200.248a58.883,58.883,0,0,1,7.1-.389,59.019,59.019,0,0,1,7.112.389,60.821,60.821,0,0,1-7.112.38,60.654,60.654,0,0,1-7.1-.38Z" transform="translate(-34.751 -65.938)" fill="#dbdbdb"/>
        <path id="Path_22099" data-name="Path 22099" d="M53.29,205.33a41.384,41.384,0,0,1,5.862-.38,40.306,40.306,0,0,1,5.912.38,40.3,40.3,0,0,1-5.912.38A41.381,41.381,0,0,1,53.29,205.33Z" transform="translate(-34.751 -66.729)" fill="#dbdbdb"/>
        <path id="Path_22100" data-name="Path 22100" d="M53.29,210.405A69.094,69.094,0,0,1,68,210.38a63.037,63.037,0,0,1-7.357.389,62.99,62.99,0,0,1-7.357-.363Z" transform="translate(-34.751 -67.513)" fill="#dbdbdb"/>
        <path id="Path_22101" data-name="Path 22101" d="M53.29,215.5a62.987,62.987,0,0,1,7.348-.389,63.044,63.044,0,0,1,7.357.389,64.945,64.945,0,0,1-7.348.363A64.88,64.88,0,0,1,53.29,215.5Z" transform="translate(-34.751 -68.307)" fill="#dbdbdb"/>
        <path id="Path_22102" data-name="Path 22102" d="M78.15,174.83a64.3,64.3,0,0,1,13.961,0,55.224,55.224,0,0,1-6.985.38A56.8,56.8,0,0,1,78.15,174.83Z" transform="translate(-38.614 -61.99)" fill="#dbdbdb"/>
        <path id="Path_22103" data-name="Path 22103" d="M78.147,179.929a27.315,27.315,0,0,1,9.164,0,27.873,27.873,0,0,1-9.181,0Z" transform="translate(-38.61 -62.781)" fill="#dbdbdb"/>
        <path id="Path_22104" data-name="Path 22104" d="M78.15,185a50.339,50.339,0,0,1,6.571-.38,48.857,48.857,0,0,1,6.563.38A56.918,56.918,0,0,1,78.15,185Z" transform="translate(-38.614 -63.569)" fill="#dbdbdb"/>
        <path id="Path_22105" data-name="Path 22105" d="M78.15,190.08a53.9,53.9,0,0,1,12.779,0,46.276,46.276,0,0,1-6.385.38A47.67,47.67,0,0,1,78.15,190.08Z" transform="translate(-38.614 -64.359)" fill="#dbdbdb"/>
        <path id="Path_22106" data-name="Path 22106" d="M78.15,195.16a64.3,64.3,0,0,1,13.961,0,62.906,62.906,0,0,1-13.961,0Z" transform="translate(-38.614 -65.149)" fill="#dbdbdb"/>
        <path id="Path_22107" data-name="Path 22107" d="M78.15,200.249a39.884,39.884,0,0,1,11.107,0A40.762,40.762,0,0,1,78.15,200.249Z" transform="translate(-38.614 -65.938)" fill="#dbdbdb"/>
        <path id="Path_22108" data-name="Path 22108" d="M78.15,205.33a51.864,51.864,0,0,1,6.571-.38,50.3,50.3,0,0,1,6.563.38,50.289,50.289,0,0,1-6.563.38A51.847,51.847,0,0,1,78.15,205.33Z" transform="translate(-38.614 -66.729)" fill="#dbdbdb"/>
        <path id="Path_22109" data-name="Path 22109" d="M78.15,210.41a34.147,34.147,0,0,1,10.135,0A33.411,33.411,0,0,1,78.15,210.41Z" transform="translate(-38.614 -67.519)" fill="#dbdbdb"/>
        <path id="Path_22110" data-name="Path 22110" d="M78.15,215.5a30.761,30.761,0,0,1,9.747,0A31.437,31.437,0,0,1,78.15,215.5Z" transform="translate(-38.614 -68.308)" fill="#dbdbdb"/>
        <rect id="Rectangle_5776" data-name="Rectangle 5776" width="22.365" height="9.451" transform="translate(12.475 211.204)" fill="#ebebeb"/>
        <rect id="Rectangle_5777" data-name="Rectangle 5777" width="22.365" height="9.451" transform="translate(0 223.122)" fill="#ebebeb"/>
        <rect id="Rectangle_5778" data-name="Rectangle 5778" width="22.365" height="9.451" transform="translate(191.618 83.76)" fill="#ebebeb"/>
        <rect id="Rectangle_5779" data-name="Rectangle 5779" width="22.365" height="9.451" transform="translate(179.143 95.678)" fill="#ebebeb"/>
        <rect id="Rectangle_5780" data-name="Rectangle 5780" width="22.365" height="9.451" transform="translate(166.718 83.76)" fill="#ebebeb"/>
        <rect id="Rectangle_5781" data-name="Rectangle 5781" width="22.365" height="9.451" transform="translate(347.001 223.122)" fill="#ebebeb"/>
        <rect id="Rectangle_5782" data-name="Rectangle 5782" width="22.365" height="9.451" transform="translate(334.526 9.291)" fill="#ebebeb"/>
        <rect id="Rectangle_5783" data-name="Rectangle 5783" width="22.365" height="9.451" transform="translate(347.001 21.208)" fill="#ebebeb"/>
        <rect id="Rectangle_5784" data-name="Rectangle 5784" width="22.365" height="9.451" transform="translate(74.739 35.761)" fill="#ebebeb"/>
        <rect id="Rectangle_5785" data-name="Rectangle 5785" width="112.351" height="172.268" transform="translate(219.549 0)" fill="#ebebeb"/>
        <rect id="Rectangle_5786" data-name="Rectangle 5786" width="47.442" height="76.623" transform="translate(225.672 6.901)" fill="#fff"/>
        <rect id="Rectangle_5787" data-name="Rectangle 5787" width="47.442" height="76.623" transform="translate(278.334 6.901)" fill="#fff"/>
        <rect id="Rectangle_5788" data-name="Rectangle 5788" width="47.442" height="76.623" transform="translate(225.672 88.744)" fill="#fff"/>
        <rect id="Rectangle_5789" data-name="Rectangle 5789" width="47.442" height="76.623" transform="translate(278.334 88.744)" fill="#fff"/>
        <rect id="Rectangle_5790" data-name="Rectangle 5790" width="26.614" height="246.458" transform="translate(219.549 0)" fill="#dbdbdb"/>
        <path id="Path_22112" data-name="Path 22112" d="M316.732,55.17l.211,26.648.068,26.648.144,53.3-.144,53.3-.068,26.648-.211,26.648-.2-26.648-.076-26.648-.144-53.3.144-53.3.076-26.648Z" transform="translate(-75.62 -43.455)" fill="#ebebeb"/>
        <path id="Path_22113" data-name="Path 22113" d="M302.272,62.49l.2,23.793.118,23.793.093,47.586-.093,47.594-.118,23.793-.2,23.793-.211-23.793-.118-23.793-.093-47.594.093-47.586.118-23.793Z" transform="translate(-73.373 -44.593)" fill="#ebebeb"/>
        <path id="Path_22114" data-name="Path 22114" d="M309.5,69.14,309.7,97l.076,27.855.144,55.728-.144,55.719L309.7,264.17l-.2,27.855-.211-27.855-.068-27.864-.144-55.719.144-55.728L309.291,97Z" transform="translate(-74.497 -45.626)" fill="#ebebeb"/>
        <path id="Path_22115" data-name="Path 22115" d="M296.884,56.84,297.095,86l.076,29.165.135,58.312-.135,58.321-.076,29.165-.211,29.156-.2-29.156-.076-29.165-.135-58.321.135-58.312L296.681,86Z" transform="translate(-72.537 -43.715)" fill="#ebebeb"/>
        <rect id="Rectangle_5791" data-name="Rectangle 5791" width="26.614" height="246.458" transform="translate(331.9 246.458) rotate(180)" fill="#dbdbdb"/>
        <path id="Path_22116" data-name="Path 22116" d="M398.682,55.17l.211,26.648.076,26.648.135,53.3-.135,53.3-.076,26.648-.211,26.648-.2-26.648-.076-26.648-.144-53.3.144-53.3.076-26.648Z" transform="translate(-88.354 -43.455)" fill="#ebebeb"/>
        <path id="Path_22117" data-name="Path 22117" d="M413.152,62.49l.2,23.793.118,23.793.1,47.586-.093,47.594-.118,23.793-.211,23.793-.2-23.793-.118-23.793-.1-47.594.1-47.586.118-23.793Z" transform="translate(-90.603 -44.593)" fill="#ebebeb"/>
        <path id="Path_22118" data-name="Path 22118" d="M405.922,69.14l.2,27.864.076,27.855.144,55.728-.144,55.719-.076,27.864-.2,27.855-.211-27.855-.068-27.864-.144-55.719.144-55.728L405.711,97Z" transform="translate(-89.479 -45.626)" fill="#ebebeb"/>
        <path id="Path_22119" data-name="Path 22119" d="M418.532,56.84l.2,29.156.076,29.165.144,58.312-.144,58.321-.068,29.165-.211,29.156-.2-29.156-.076-29.165-.144-58.321.144-58.312L418.33,86Z" transform="translate(-91.438 -43.715)" fill="#ebebeb"/>
      </g>
      <g id="freepik--Floor--inject-48" transform="translate(1.25 276.848)">
        <path id="Path_22120" data-name="Path 22120" d="M32.82,369.5l45.854-.2,45.863-.076,91.717-.144,91.717.144,45.854.068,45.863.211-45.863.2-45.854.076-91.717.144-91.717-.144L78.674,369.7Z" transform="translate(-32.82 -369.08)" fill="#263238"/>
      </g>
      <g id="freepik--Shadow--inject-48" transform="translate(11.099 303.487)" opacity="0.5">
        <ellipse id="Ellipse_997" data-name="Ellipse 997" cx="173.585" cy="23.801" rx="173.585" ry="23.801" fill="#ebebeb"/>
      </g>
      <g id="freepik--Plant--inject-48" transform="translate(274.567 155.957)">
        <path id="Path_22214" data-name="Path 22214" d="M438.863,257.92c-3.21-3.15-7.357-6.943-12.264-5.591-4.612,1.275-6.377,6.318-7.2,10.507-1.064,5.414-1.892,10.87-2.753,16.318s-1.689,10.98-2.475,16.521c-.439,3.108-.887,6.216-1.318,9.291q-.329,2.331-.65,4.671c-.211,1.52-.465,3.049-.549,4.586a.431.431,0,0,0,.845.093c.6-2.593.845-5.287,1.225-7.923s.769-5.3,1.157-7.948q1.149-7.9,2.357-15.769t2.449-15.769c.709-4.451,1.047-9.992,5-12.923a7.6,7.6,0,0,1,7.382-.693,22,22,0,0,1,6.706,4.688.068.068,0,0,0,.093-.059Z" transform="translate(-365.002 -230.004)" fill="#263238"/>
        <path id="Path_22215" data-name="Path 22215" d="M436.693,253.462s-6.554-2.356-9.8,2.424.633,16.96,30.5,23.827a84.3,84.3,0,0,0-7.188-26.985C443.8,238.766,432.4,244.028,436.693,253.462Z" transform="translate(-367.223 -228.782)" fill="#ff7b7b"/>
        <path id="Path_22216" data-name="Path 22216" d="M457.022,279.356a21.054,21.054,0,0,0-1.5-2.424c-.5-.769-1-1.537-1.512-2.3-.38-.574-.777-1.14-1.166-1.689a1.232,1.232,0,0,1,.051-.422,6.1,6.1,0,0,0,.11-.777c.068-.557.152-1.115.237-1.689s.169-1.115.279-1.689a8.82,8.82,0,0,1,.389-1.757c.042-.084-.118-.127-.127,0a6.852,6.852,0,0,1-.253,1.005c-.068.245-.135.5-.194.752-.152.566-.287,1.132-.414,1.689s-.22,1.056-.3,1.588c-.051.253-.084.507-.118.76-.532-.76-1.073-1.512-1.639-2.247-1.579-2.086-3.26-4.1-4.992-6.056v-.059a52.385,52.385,0,0,1,.777-9.291c0-.084-.11-.135-.127-.051a31.927,31.927,0,0,0-1.123,8.928c-.617-.693-1.25-1.385-1.883-2.069q-2.179-2.34-4.451-4.612c-.059-.059-.16,0-.093.093,2.534,2.711,4.9,5.532,7.23,8.4a51.078,51.078,0,0,0-5.456.2c-2.027.152-4.037.405-6.047.684-.085,0-.059.144,0,.135a55.7,55.7,0,0,1,6.039-.541c1.943-.085,3.885,0,5.828,0,1.258,1.563,2.534,3.125,3.725,4.713h-1.647c-.9,0-1.816.084-2.72.16a40.623,40.623,0,0,0-5.515.845.068.068,0,0,0,0,.127c1.833-.2,3.674-.38,5.524-.439h4.012a1.571,1.571,0,0,0,.752-.068l2.407,3.133c.633.845,1.258,1.689,1.867,2.534s1.258,1.664,1.943,2.509a.073.073,0,0,0,.118-.084Z" transform="translate(-368.574 -230.41)" fill="#263238"/>
        <path id="Path_22217" data-name="Path 22217" d="M440.863,263.17a20.169,20.169,0,0,0-3.193-.152c-1.064,0-2.128,0-3.193.068a.068.068,0,0,0,0,.135c1.073-.076,2.154-.1,3.235-.084s2.095.118,3.142.093A.03.03,0,0,0,440.863,263.17Z" transform="translate(-368.538 -231.707)" fill="#263238"/>
        <path id="Path_22218" data-name="Path 22218" d="M453.06,265.472c.118-1.022.245-2.044.465-3.049a.068.068,0,1,0-.127,0c-.152,1.005-.355,2-.5,3.007-.076.5-.144,1.005-.2,1.512a6.674,6.674,0,0,0-.127,1.419.093.093,0,0,0,.177,0,8.992,8.992,0,0,0,.152-1.427C452.933,266.444,453,265.962,453.06,265.472Z" transform="translate(-371.36 -231.602)" fill="#263238"/>
        <path id="Path_22219" data-name="Path 22219" d="M450.627,252.663c-.262,1-.515,2-.7,3.007-.093.515-.169,1.03-.245,1.546a6.5,6.5,0,0,0-.093,1.512h.076a9.2,9.2,0,0,0,.237-1.444c.068-.5.144-.988.228-1.487.177-1.039.363-2.069.625-3.091C450.779,252.629,450.652,252.587,450.627,252.663Z" transform="translate(-370.895 -230.093)" fill="#263238"/>
        <path id="Path_22220" data-name="Path 22220" d="M402.086,317.692c-.169-1.875-.346-3.75-.549-5.634-.389-3.716-.845-7.433-1.343-11.132s-.971-7.407-1.571-11.081a27.651,27.651,0,0,0-1.132-5.068,4.781,4.781,0,0,0-2.787-3.142c-3.514-1.216-5.912,2.424-7.306,5a.068.068,0,0,0,.118.068c.845-1.216,3.2-4.645,5.862-4.485,1.791.1,3.226,1.377,4.088,5.845,2.145,11.14,4.079,33.785,4.308,35.229.118.785.667.752.676-.093C402.458,321.392,402.264,319.533,402.086,317.692Z" transform="translate(-361.232 -234.564)" fill="#263238"/>
        <path id="Path_22221" data-name="Path 22221" d="M385.684,284.724s3.074-10.836-3.716-5.422c-11.3,9.029-11.7,28.658-11.7,28.658s20.085-11.664,22.577-19.359C396.571,277.122,385.684,284.724,385.684,284.724Z" transform="translate(-358.572 -234.003)" fill="#ff7b7b"/>
        <path id="Path_22222" data-name="Path 22222" d="M389.687,291.067c-1.571.321-3.167.532-4.764.76l-2.264.321c-.507.068-1.022.118-1.529.177,1.495-2.061,3-4.113,4.434-6.216.059-.076-.068-.16-.135-.093a45.852,45.852,0,0,0-3.378,3.868c-.3-.845-.6-1.689-.9-2.534-.338-.971-.7-1.934-.954-2.939,0-.084-.152-.042-.127.042.27,1,.473,2.01.735,3.007s.549,1.909.845,2.846c-.735.954-1.436,1.934-2.128,2.922-.338-.98-.769-1.926-1.073-2.922,0-.084-.161-.042-.127.042.355,1.1.549,2.238.887,3.378-.456.676-.921,1.351-1.36,2.027-.845,1.258-1.579,2.534-2.323,3.818a.3.3,0,0,0-.177.3c-1.267,2.2-2.475,4.426-3.666,6.672-.042.076.076.135.118.059,1.191-2.221,2.534-4.375,3.894-6.5h0a3.041,3.041,0,0,1,.659-.127l.693-.152c.515-.11,1.03-.245,1.546-.372,1.022-.253,2.027-.5,3.066-.676.084,0,.042-.144-.042-.127-1.216.228-2.432.372-3.666.515-.574.068-1.157.135-1.731.228h-.084c.726-1.1,1.453-2.188,2.2-3.269s1.478-2.1,2.23-3.142c.7-.1,1.394-.287,2.078-.414l2.339-.456c1.554-.3,3.1-.659,4.662-.912C389.831,291.185,389.8,291.05,389.687,291.067Z" transform="translate(-358.791 -235.026)" fill="#263238"/>
        <path id="Path_22223" data-name="Path 22223" d="M378.571,293.071c-.093-.287-.177-.574-.27-.845a16.8,16.8,0,0,1-.456-1.816c0-.084-.152-.051-.135,0,.135.617.279,1.225.414,1.833a13.414,13.414,0,0,0,.524,1.807.127.127,0,0,0,.237-.076C378.8,293.679,378.673,293.375,378.571,293.071Z" transform="translate(-359.728 -235.957)" fill="#263238"/>
        <path id="Path_22224" data-name="Path 22224" d="M394.437,289.33c-.921.144-1.841.2-2.762.287s-1.841.211-2.762.346c-.051,0-.051.084,0,.076.929-.059,1.841-.135,2.762-.253s1.841-.253,2.762-.321C394.53,289.465,394.521,289.322,394.437,289.33Z" transform="translate(-361.463 -235.797)" fill="#263238"/>
        <path id="Path_22225" data-name="Path 22225" d="M415.788,297.318c-.355-7.982-.845-15.946-1.689-23.9-.405-3.961-.845-7.914-1.411-11.825a84.385,84.385,0,0,0-2.28-11.478,22.112,22.112,0,0,0-3.826-8.091,8.666,8.666,0,0,0-7.72-3.378c-3.488.431-6.3,2.627-8.733,5.017-2.737,2.686-5.237,5.617-7.762,8.488-.642.726-1.275,1.453-1.9,2.188-.059.068.042.16.093.093,2.475-2.838,5.068-5.6,7.728-8.235,2.483-2.441,5.068-5.068,8.488-6.115a8.725,8.725,0,0,1,4.924-.11,7.838,7.838,0,0,1,3.378,2.128,17.66,17.66,0,0,1,3.792,7.382c2.145,7.34,2.914,15.034,3.716,22.61s1.351,15.423,1.74,23.151.693,15.549,1.444,23.3c.093.954.211,1.909.338,2.863.084.642,1.073.642,1.022,0C416.515,313.357,416.143,305.342,415.788,297.318Z" transform="translate(-360.154 -227.915)" fill="#263238"/>
        <path id="Path_22226" data-name="Path 22226" d="M385.982,243.506s4.552-8.446-.845-11.14-23.421,17.416-28.717,46.842c0,0,29.114-12.889,39-25.727S394.149,237.822,385.982,243.506Z" transform="translate(-356.42 -226.908)" fill="#ff7b7b"/>
        <path id="Path_22227" data-name="Path 22227" d="M391.1,252.162c-3.269,0-6.529-.245-9.806-.22l1.841-2.112a29.509,29.509,0,0,0,2.534-2.973c.051-.068-.051-.16-.118-.11a24.5,24.5,0,0,0-2.475,2.483c-.845.845-1.638,1.748-2.449,2.627-1.25,1.351-2.475,2.728-3.7,4.1v-5.448c0-2.247,0-4.51.177-6.757a.068.068,0,0,0-.135,0c-.16,2.255-.389,4.5-.507,6.757-.051,1.115-.076,2.221-.093,3.336v2.661l-.583.642c-2.61,2.982-5.068,6.064-7.509,9.206a2.23,2.23,0,0,0-.042-.524,8.754,8.754,0,0,0-.118-1.03c-.084-.752-.186-1.5-.3-2.247s-.211-1.4-.329-2.1-.329-1.588-.389-2.382c0-.093-.152-.076-.127,0a20.7,20.7,0,0,1,.27,2.39l.2,2.162c.059.718.127,1.444.2,2.162l.1,1.039a1.355,1.355,0,0,0,.068.515,1,1,0,0,0,.135.414l-1.174,1.689c-1.647,2.179-3.269,4.392-4.89,6.6-.051.068.042.169.093.093,1.537-2,3.117-3.961,4.721-5.912,1.191.051,2.416-.042,3.615-.059H374.1a.068.068,0,1,0,0-.135c-1.258,0-2.534.042-3.784.051s-2.331-.051-3.48,0c1.41-1.689,2.829-3.378,4.223-5.11l1.563-1.85a7.037,7.037,0,0,0,1.461.051H379c2.221,0,4.443-.11,6.672-.11.084,0,.076-.135,0-.135-2.221,0-4.451-.127-6.672-.186-1.081,0-2.154-.059-3.235-.076h-2.677l3.666-4.341a.168.168,0,0,0,.068-.085l3.59-4.223.507-.574c3.378.11,6.757-.118,10.135-.051C391.2,252.3,391.2,252.162,391.1,252.162Z" transform="translate(-357.267 -228.706)" fill="#263238"/>
        <path id="Path_22228" data-name="Path 22228" d="M394.344,260.57h-.794c-.076,0-.068.118,0,.118h.794C394.437,260.705,394.437,260.57,394.344,260.57Z" transform="translate(-362.181 -231.328)" fill="#263238"/>
        <path id="Path_22229" data-name="Path 22229" d="M391.276,260.551c-1.047,0-2.1,0-3.15-.068l-1.571-.042a5.638,5.638,0,0,0-1.461,0c-.051,0-.042.076,0,.093a5.693,5.693,0,0,0,1.47.1h4.713A.068.068,0,0,0,391.276,260.551Z" transform="translate(-360.87 -231.301)" fill="#263238"/>
        <path id="Path_22230" data-name="Path 22230" d="M380.394,272.113a43.311,43.311,0,0,0-6.444-.583v.051c2.137.2,4.282.313,6.4.659C380.445,272.256,380.479,272.121,380.394,272.113Z" transform="translate(-359.144 -233.031)" fill="#263238"/>
        <path id="Path_22231" data-name="Path 22231" d="M371.071,260.345a4.145,4.145,0,0,0-.068-.566c-.059-.422-.127-.845-.194-1.258-.118-.845-.262-1.6-.414-2.39,0-.076-.144-.059-.135,0,.1.845.194,1.647.27,2.475l.1,1.216a3.269,3.269,0,0,0,.169,1.149c.059.127.245.076.279-.042A1.587,1.587,0,0,0,371.071,260.345Z" transform="translate(-358.57 -230.63)" fill="#263238"/>
        <path id="Path_22232" data-name="Path 22232" d="M419.879,231.97c-1.047-1.943-2.373-4.5-4.975-4.341-2.145.135-3.108,2.323-3.573,4.139-1.419,5.6-1.52,11.512-1.791,17.255-.583,12.137-1.106,24.283-1.191,36.437v10.135c0,3.429,0,6.884.236,10.313a.253.253,0,1,0,.507,0c0-2.939-.085-5.912-.093-8.818s0-5.735.059-8.607q.135-8.708.464-17.416c.211-5.769.465-11.537.71-17.306q.177-4.316.372-8.649c.127-2.787.245-5.583.566-8.362.177-1.554.414-3.117.735-4.645a6.546,6.546,0,0,1,1.343-3.117,2.939,2.939,0,0,1,3.8-.27,7.99,7.99,0,0,1,2.686,3.378.1.1,0,1,0,.144-.127Z" transform="translate(-364.489 -226.208)" fill="#263238"/>
        <path id="Path_22233" data-name="Path 22233" d="M420.1,230.781s-2.145-7.551,2.585-3.775c7.872,6.284,8.151,19.958,8.151,19.958s-13.987-8.125-15.727-13.514C412.518,225.494,420.1,230.781,420.1,230.781Z" transform="translate(-365.456 -225.948)" fill="#ff7b7b"/>
        <path id="Path_22234" data-name="Path 22234" d="M428.549,242.363c-.135-.211-.27-.414-.4-.625a3.262,3.262,0,0,0,0-.642c0-.321,0-.65,0-.971a18.182,18.182,0,0,1,.068-1.917c0-.084-.127-.084-.135,0q-.051.938-.076,1.875v1.343c-.549-.845-1.115-1.689-1.689-2.534-.169-.245-.346-.481-.515-.718a15.015,15.015,0,0,1,0-2.466c0-.845,0-1.757.051-2.627,0-.093-.127-.084-.135,0,0,.912-.068,1.824-.118,2.737a16.738,16.738,0,0,0-.051,1.951c-1.351-1.833-2.787-3.606-4.223-5.372,0-.051-.144,0-.1.084.9,1.14,1.765,2.306,2.6,3.488-1.639-.389-3.319-.608-4.992-.845-.084,0-.118.118,0,.127,1.774.27,3.514.709,5.262,1.1h0l1.993,2.846.794,1.174h-.076l-.549-.068c-.38-.051-.769-.085-1.157-.11-.845-.068-1.622-.11-2.424-.152a.068.068,0,0,0,0,.135,20.522,20.522,0,0,1,2.382.169l1.25.144.541.068h.161c.456.659.9,1.318,1.351,1.985.786,1.166,1.495,2.416,2.34,3.547a.068.068,0,0,0,.11-.068A36.209,36.209,0,0,0,428.549,242.363Z" transform="translate(-366.107 -226.947)" fill="#263238"/>
        <path id="Path_22235" data-name="Path 22235" d="M426.187,233.588v-.845a15.045,15.045,0,0,1,.068-1.85.068.068,0,1,0-.127,0c0,.608-.068,1.216-.1,1.833v1.334a1.274,1.274,0,0,0,0,.439.059.059,0,1,0,.118,0,1.087,1.087,0,0,0,0-.405Z" transform="translate(-367.233 -226.703)" fill="#263238"/>
        <path id="Path_22236" data-name="Path 22236" d="M423.552,237.739c-.515-.084-1.047-.118-1.579-.16s-1.149-.1-1.689-.169a.068.068,0,1,0,0,.127c1.106.076,2.2.27,3.311.313C423.6,237.848,423.611,237.747,423.552,237.739Z" transform="translate(-366.329 -227.729)" fill="#263238"/>
        <path id="Path_22237" data-name="Path 22237" d="M429.374,237.846c.042.051,0,.22,0,.287v1.3a1.233,1.233,0,0,0,0,.465h.059a.482.482,0,0,0,0-.22v-1.833C429.434,237.779,429.281,237.72,429.374,237.846Z" transform="translate(-367.751 -227.786)" fill="#263238"/>
        <path id="Path_22238" data-name="Path 22238" d="M417.9,279.461c-2.939-2.2-5.583-5.38-9.544-5.532-3.26-.135-5.549,2.323-6.858,5.068a28.356,28.356,0,0,0-1.6,4.51q-.845,3.108-1.689,6.225c-1.03,4.1-1.909,8.252-2.627,12.416-.4,2.323-.76,4.654-1.056,6.993a60.273,60.273,0,0,0-.693,7.162.372.372,0,0,0,.735.084c.4-1.959.566-3.978.845-5.955s.591-3.978.929-5.912c.667-3.961,1.444-7.914,2.34-11.825.845-3.7,1.689-7.458,2.872-11.064.845-2.585,2.23-5.608,5.017-6.537,4.223-1.411,8.1,2.188,11.208,4.519C417.885,279.613,417.977,279.512,417.9,279.461Z" transform="translate(-362.233 -233.403)" fill="#263238"/>
        <path id="Path_22239" data-name="Path 22239" d="M416.856,276.254s-2.711-7.745,1.208-9.291c5.912-2.272,21.267,15.059,18.261,41.614,0,0-11.892-6.546-20.676-13.919s-11.022-16.994-7.154-19.477S416.856,276.254,416.856,276.254Z" transform="translate(-364.228 -232.29)" fill="#ff7b7b"/>
        <path id="Path_22240" data-name="Path 22240" d="M435.98,304.4a19.9,19.9,0,0,0-1.427-2.677c-.5-.9-1.014-1.816-1.537-2.711-1.022-1.748-2.036-3.5-3.083-5.228-.169-.287-.346-.566-.515-.845a1.485,1.485,0,0,1,.068-.312c.059-.253.118-.507.169-.769.135-.574.236-1.157.346-1.732.211-1.14.405-2.289.71-3.378,0-.084-.11-.11-.127,0-.245,1.132-.6,2.255-.937,3.378-.169.549-.346,1.1-.49,1.647-.051.194-.093.38-.144.574-1.267-2.078-2.534-4.139-3.936-6.132a3.057,3.057,0,0,0,.135-.845c.042-.389.084-.777.135-1.166.1-.845.2-1.74.329-2.618.253-1.689.507-3.378.929-5.068,0-.084-.11-.11-.127,0-.422,1.689-.887,3.378-1.208,5.068-.152.845-.3,1.689-.414,2.534-.051.414-.093.845-.144,1.258a1.169,1.169,0,0,1-.042.38c-.431-.6-.845-1.208-1.3-1.791-1.36-1.791-2.77-3.53-4.223-5.27a.067.067,0,0,0-.11.076,94.09,94.09,0,0,1,6.689,9.764l1.157,1.883-.38-.051c-.5-.059-1.005-.093-1.5-.144-1-.093-2-.177-3.007-.253-2-.16-4-.287-6.005-.5a.068.068,0,1,0,0,.135c2.027.228,4.037.549,6.056.845,1,.144,1.985.279,2.981.405a12.584,12.584,0,0,0,2.289.236q1.191,1.909,2.365,3.835h-7.255c-.085,0-.076.135,0,.135,1.3,0,2.61.076,3.911.144l1.858.118.929.068a1.917,1.917,0,0,0,.845,0l2,3.26c.617,1.005,1.242,2,1.875,3a24.493,24.493,0,0,0,2.019,3.024C435.9,304.524,436.013,304.482,435.98,304.4Z" transform="translate(-365.665 -233.795)" fill="#263238"/>
        <path id="Path_22241" data-name="Path 22241" d="M432.763,284.119a20.029,20.029,0,0,1-.532,2.534c-.22.845-.473,1.689-.752,2.534a.084.084,0,1,0,.16.051c.262-.845.5-1.689.7-2.534s.346-1.689.549-2.534C432.889,284.06,432.763,284.009,432.763,284.119Z" transform="translate(-368.082 -234.978)" fill="#263238"/>
        <path id="Path_22242" data-name="Path 22242" d="M421.1,290.06a1.023,1.023,0,0,0-.642-.245l-1.123-.152-2.095-.253c-1.444-.169-2.9-.3-4.35-.49a.068.068,0,0,0,0,.135c1.36.16,2.72.372,4.088.549.667.084,1.334.186,2.01.262l.963.11a3.276,3.276,0,0,1,1.107.186C421.1,290.2,421.148,290.111,421.1,290.06Z" transform="translate(-365.184 -235.733)" fill="#263238"/>
        <path id="Path_22243" data-name="Path 22243" d="M432.145,304.081c-.684-.059-1.377-.084-2.061-.1h-1.537a3.278,3.278,0,0,1-.642,0c-.1,0-.11.144,0,.135a2.44,2.44,0,0,1,.608,0h.541l1.039.059c.684.042,1.368.084,2.052.084a.089.089,0,0,0,0-.177Z" transform="translate(-367.515 -238.073)" fill="#263238"/>
        <path id="Path_22244" data-name="Path 22244" d="M437.824,299.93c.085-.388.152-.777.228-1.166.144-.769.279-1.537.422-2.3a.068.068,0,1,0-.135,0l-.507,2.238c-.084.372-.16.743-.245,1.123l-.1.515a1.352,1.352,0,0,0-.068.549c0,.059.11.11.152.042a2.753,2.753,0,0,0,.253-1.005Z" transform="translate(-369.005 -236.896)" fill="#263238"/>
        <path id="Path_22245" data-name="Path 22245" d="M390.24,320.59l.828,9.409,2.813,31.791h24.891L422.293,330l1.039-9.409Z" transform="translate(-361.675 -240.654)" fill="#455a64"/>
        <path id="Path_22246" data-name="Path 22246" d="M390.24,320.59l.828,9.409h31.225l1.039-9.409Z" transform="translate(-361.675 -240.654)" fill="#263238"/>
        <rect id="Rectangle_5807" data-name="Rectangle 5807" width="38.016" height="7.635" transform="translate(64.115 85.003) rotate(180)" fill="#455a64"/>
      </g>
    </g>
    <g id="freepik--Floor--inject-23" transform="translate(-9557.833 -5902.054)">
      <path id="Path_21485" data-name="Path 21485" d="M38.76,412.763l46.678-.212,46.678-.08,93.355-.141,93.355.141,46.678.08,46.678.212-46.678.221-46.678.08-93.355.141-93.355-.141-46.678-.08Z" transform="translate(-38.76 -412.33)" fill="#263238"/>
    </g>
    <g id="freepik--Plant--inject-23" transform="translate(-9557.877 -6025.642)">
      <path id="Path_21486" data-name="Path 21486" d="M120.482,304c-3.279-3.217-7.522-7.071-12.542-5.719-4.72,1.308-6.523,6.461-7.372,10.748-1.087,5.533-1.936,11.119-2.811,16.7s-1.768,11.252-2.537,16.891c-.451,3.182-.884,6.364-1.352,9.546l-.663,4.773c-.212,1.564-.477,3.12-.566,4.693a.452.452,0,0,0,.884.1c.61-2.652.884-5.409,1.246-8.105s.787-5.418,1.184-8.132c.787-5.374,1.6-10.757,2.4-16.131s1.653-10.757,2.51-16.131c.734-4.561,1.078-10.218,5.118-13.258a7.8,7.8,0,0,1,7.548-.707,22.676,22.676,0,0,1,6.859,4.8.071.071,0,0,0,.088-.062Z" transform="translate(-44.972 -275.467)" fill="#263238"/>
      <path id="Path_21487" data-name="Path 21487" d="M117.616,299.823s-6.709-2.413-10.023,2.484.654,17.342,31.192,24.369a86.169,86.169,0,0,0-7.345-27.612C124.89,284.789,113.223,290.2,117.616,299.823Z" transform="translate(-46.596 -274.577)" fill="#ff3567"/>
      <path id="Path_21488" data-name="Path 21488" d="M137.987,325.833a25.753,25.753,0,0,0-1.538-2.484L134.9,321c-.4-.583-.8-1.167-1.2-1.768a3.541,3.541,0,0,0,.062-.442l.106-.8c.071-.566.159-1.14.239-1.715s.177-1.131.292-1.7a8.743,8.743,0,0,1,.4-1.768c0-.088-.124-.133-.133,0a6.806,6.806,0,0,1-.274,1.008c-.071.256-.141.513-.2.769q-.221.884-.424,1.768c-.115.539-.221,1.078-.309,1.617-.044.265-.088.521-.124.787-.539-.778-1.1-1.547-1.671-2.3-1.618-2.139-3.332-4.2-5.109-6.187v-.053a54.86,54.86,0,0,1,.8-9.546c0-.08-.115-.133-.133-.044a32.544,32.544,0,0,0-1.14,9.13c-.636-.707-1.282-1.414-1.936-2.113-1.485-1.6-3-3.182-4.552-4.72a.071.071,0,0,0-.1.1c2.572,2.767,5.02,5.657,7.4,8.591a53.562,53.562,0,0,0-5.586.2c-2.068.159-4.128.424-6.187.707-.088,0-.062.15,0,.133a57.734,57.734,0,0,1,6.187-.548c2-.088,3.977,0,5.966,0q1.936,2.387,3.818,4.817h-1.573c-.928,0-1.865.08-2.784.159a41.726,41.726,0,0,0-5.639.84.071.071,0,1,0,0,.141c1.874-.212,3.757-.389,5.639-.46h4.11a1.688,1.688,0,0,0,.769-.071c.822,1.069,1.644,2.13,2.457,3.208.654.884,1.29,1.715,1.918,2.581a31.781,31.781,0,0,0,1.936,2.652A.094.094,0,0,0,137.987,325.833Z" transform="translate(-47.575 -275.767)" fill="#263238"/>
      <path id="Path_21489" data-name="Path 21489" d="M121.489,308.9a20.121,20.121,0,0,0-3.262-.159c-1.087,0-2.183,0-3.27.071a.071.071,0,1,0,0,.133c1.1-.08,2.21-.1,3.315-.08s2.139.115,3.208.088Z" transform="translate(-47.553 -276.712)" fill="#263238"/>
      <path id="Path_21490" data-name="Path 21490" d="M133.145,311.279c.124-1.043.256-2.086.477-3.111a.071.071,0,1,0-.133,0c-.159,1.025-.354,2.051-.5,3.076-.08.513-.15,1.034-.212,1.547a6.726,6.726,0,0,0-.124,1.458.088.088,0,1,0,.177,0,8.841,8.841,0,0,0,.159-1.45C133.03,312.269,133.083,311.774,133.145,311.279Z" transform="translate(-49.618 -276.636)" fill="#263238"/>
      <path id="Path_21491" data-name="Path 21491" d="M130.8,298.624c-.265,1.008-.53,2.042-.725,3.076-.088.521-.168,1.052-.239,1.573a6.054,6.054,0,0,0-.106,1.547c0,.044.071.044.08,0a8.422,8.422,0,0,0,.239-1.476c.071-.5.15-1.016.239-1.52.186-1.061.371-2.121.645-3.164C130.948,298.579,130.851,298.535,130.8,298.624Z" transform="translate(-49.278 -275.533)" fill="#263238"/>
      <path id="Path_21492" data-name="Path 21492" d="M83.966,363.843c-.168-1.927-.354-3.845-.557-5.772q-.61-5.7-1.379-11.393c-.513-3.783-1-7.566-1.6-11.331a28.434,28.434,0,0,0-1.167-5.153,4.888,4.888,0,0,0-2.855-3.226c-3.589-1.246-6.019,2.484-7.469,5.118,0,.08.071.141.124.071.884-1.255,3.27-4.755,5.993-4.6,1.838.115,3.306,1.405,4.181,5.984,2.2,11.393,4.172,34.524,4.419,36.036.115.8.689.769.689-.088C84.346,367.626,84.125,365.726,83.966,363.843Z" transform="translate(-42.22 -278.802)" fill="#263238"/>
      <path id="Path_21493" data-name="Path 21493" d="M67.932,330.277s3.138-11.093-3.8-5.551c-11.526,9.237-11.941,29.318-11.941,29.318s20.55-11.941,23.1-19.808C79.1,322.508,67.932,330.277,67.932,330.277Z" transform="translate(-40.275 -278.39)" fill="#ff3567"/>
      <path id="Path_21494" data-name="Path 21494" d="M72.027,336.472c-1.618.327-3.253.539-4.879.769l-2.307.327c-.521.071-1.052.124-1.573.186,1.529-2.1,3.076-4.207,4.543-6.355a.088.088,0,0,0-.141-.106,47.249,47.249,0,0,0-3.429,3.969l-.884-2.572c-.345-.99-.725-1.98-.972-3.005,0-.08-.159-.044-.133.044.283,1.016.477,2.051.751,3.067s.557,1.962.884,2.917c-.751.981-1.476,1.98-2.174,2.988-.354-1-.8-1.971-1.1-2.988a.071.071,0,0,0-.133.044c.371,1.123.566,2.289.884,3.421-.468.689-.937,1.379-1.388,2.077-.831,1.282-1.618,2.59-2.378,3.907a.3.3,0,0,0-.186.309c-1.29,2.245-2.528,4.525-3.748,6.824,0,.08.08.141.124.062,1.22-2.272,2.572-4.481,3.986-6.647h0a3.23,3.23,0,0,1,.672-.124l.716-.159c.53-.115,1.052-.248,1.582-.38,1.043-.265,2.077-.5,3.129-.689.088,0,.053-.15,0-.133-1.246.239-2.493.38-3.748.522l-1.741.239h-.088q1.114-1.679,2.245-3.341c.751-1.087,1.52-2.157,2.289-3.217.716-.106,1.423-.292,2.121-.424l2.386-.468c1.591-.309,3.173-.663,4.773-.928C72.151,336.587,72.115,336.455,72.027,336.472Z" transform="translate(-40.446 -279.141)" fill="#263238"/>
      <path id="Path_21495" data-name="Path 21495" d="M60.354,338.233c-.1-.292-.186-.583-.283-.884a17.44,17.44,0,0,1-.468-1.865c0-.088-.15-.044-.133.044.133.619.283,1.246.424,1.874a12.161,12.161,0,0,0,.539,1.838.124.124,0,0,0,.239-.071C60.583,338.86,60.451,338.586,60.354,338.233Z" transform="translate(-41.12 -279.814)" fill="#263238"/>
      <path id="Path_21496" data-name="Path 21496" d="M76.073,334.46c-.937.141-1.883.2-2.828.292s-1.883.212-2.82.353c-.053,0-.053.088,0,.08.946-.062,1.883-.133,2.828-.256s1.874-.265,2.82-.327C76.161,334.592,76.152,334.451,76.073,334.46Z" transform="translate(-42.388 -279.7)" fill="#263238"/>
      <path id="Path_21497" data-name="Path 21497" d="M98.3,344.936c-.371-8.167-.884-16.316-1.706-24.457q-.61-6.072-1.441-12.127a86.715,86.715,0,0,0-2.333-11.738,22.424,22.424,0,0,0-3.916-8.282,8.883,8.883,0,0,0-7.893-3.447c-3.536.442-6.452,2.7-8.936,5.144-2.793,2.74-5.356,5.736-7.955,8.671-.654.742-1.308,1.494-1.953,2.245a.072.072,0,0,0,.106.1c2.528-2.908,5.153-5.728,7.9-8.423,2.537-2.5,5.162-5.224,8.68-6.258a8.891,8.891,0,0,1,5.038-.115,7.955,7.955,0,0,1,3.447,2.183,18.014,18.014,0,0,1,3.88,7.548c2.2,7.5,2.988,15.379,3.8,23.131s1.388,15.768,1.768,23.679.707,15.91,1.476,23.865c.088.981.221,1.953.345,2.926.08.663,1.1.663,1.043,0C99.043,361.34,98.663,353.138,98.3,344.936Z" transform="translate(-41.432 -273.939)" fill="#263238"/>
      <path id="Path_21498" data-name="Path 21498" d="M68.9,290.179s4.658-8.635-.884-11.4S44.1,296.623,38.71,326.675c0,0,29.787-13.179,39.907-26.313S77.265,284.363,68.9,290.179Z" transform="translate(-38.71 -273.206)" fill="#ff3567"/>
      <path id="Path_21499" data-name="Path 21499" d="M73.9,298.513c-3.35,0-6.682-.256-10.032-.23l1.883-2.112A31.645,31.645,0,0,0,68.4,293.13c.053-.071-.053-.168-.115-.115a23.783,23.783,0,0,0-2.537,2.546c-.884.884-1.671,1.768-2.5,2.652-1.282,1.388-2.537,2.793-3.783,4.207v-5.586c0-2.3,0-4.614.177-6.912,0-.088-.133-.08-.133,0-.159,2.307-.4,4.6-.513,6.921-.053,1.131-.088,2.272-.1,3.4V303l-.592.654q-3.977,4.574-7.681,9.422v-.53c0-.354-.08-.707-.115-1.061-.088-.769-.194-1.538-.309-2.3s-.221-1.441-.345-2.157-.327-1.617-.389-2.431a.071.071,0,0,0-.141,0,20.55,20.55,0,0,1,.283,2.448c.071.734.141,1.476.2,2.21s.133,1.476.212,2.21l.106,1.061a1.558,1.558,0,0,0,.062.53,1.132,1.132,0,0,0,.141.424l-1.273,1.662c-1.688,2.236-3.341,4.5-5,6.753-.053.071,0,.168.1.1,1.573-2.051,3.191-4.057,4.826-6.055,1.229.053,2.475,0,3.7-.053s2.581,0,3.871,0c.088,0,.088-.141,0-.133l-3.871.044c-1.184,0-2.386-.053-3.536,0,1.441-1.768,2.9-3.491,4.358-5.224l1.6-1.9a7.072,7.072,0,0,0,1.494.053h1.768l3.306-.044c2.272,0,4.543-.115,6.815-.124a.071.071,0,1,0,0-.133c-2.272,0-4.552-.124-6.824-.186l-3.306-.08H55.574c1.255-1.485,2.5-2.97,3.756-4.419a.211.211,0,0,0,.071-.08c1.22-1.441,2.439-2.881,3.677-4.313l.5-.583c3.474.115,6.938-.115,10.412-.044C73.994,298.654,73.985,298.513,73.9,298.513Z" transform="translate(-39.328 -274.521)" fill="#263238"/>
      <path id="Path_21500" data-name="Path 21500" d="M75.77,306.35h-.778a.062.062,0,1,0,0,.124h.813C75.876,306.483,75.876,306.35,75.77,306.35Z" transform="translate(-42.916 -276.436)" fill="#263238"/>
      <path id="Path_21501" data-name="Path 21501" d="M73.006,306.338l-3.217-.071-1.609-.053a6.026,6.026,0,0,0-1.494,0,.053.053,0,0,0,0,.1,5.719,5.719,0,0,0,1.5.115h4.826C73.147,306.47,73.094,306.338,73.006,306.338Z" transform="translate(-41.955 -276.415)" fill="#263238"/>
      <path id="Path_21502" data-name="Path 21502" d="M62.385,317.652a43.419,43.419,0,0,0-6.585-.592v.044c2.183.212,4.419.327,6.55.681C62.438,317.8,62.473,317.661,62.385,317.652Z" transform="translate(-40.694 -277.68)" fill="#263238"/>
      <path id="Path_21503" data-name="Path 21503" d="M53.012,306.317a1.581,1.581,0,0,0-.071-.574c-.053-.433-.124-.884-.186-1.29-.133-.822-.274-1.635-.433-2.448,0-.08-.141-.053-.133,0,.106.884.194,1.688.274,2.537l.106,1.237a3.536,3.536,0,0,0,.168,1.184.159.159,0,0,0,.283-.044A1.459,1.459,0,0,0,53.012,306.317Z" transform="translate(-40.275 -275.926)" fill="#263238"/>
      <path id="Path_21504" data-name="Path 21504" d="M101.162,278.588c-1.061-1.989-2.422-4.605-5.082-4.419-2.192.133-3.182,2.378-3.659,4.225-1.45,5.736-1.547,11.782-1.83,17.678-.6,12.374-1.14,24.837-1.211,37.273v10.333c0,3.535,0,7.071.247,10.607a.256.256,0,0,0,.513,0c0-3.005-.08-6.01-.1-9.016s0-5.869.062-8.839q.141-8.91.477-17.819c.212-5.9.477-11.8.725-17.678q.186-4.419.38-8.839c.133-2.855.256-5.71.583-8.556.186-1.591.415-3.182.751-4.746a6.559,6.559,0,0,1,1.37-3.191,3.014,3.014,0,0,1,3.889-.283,8.326,8.326,0,0,1,2.749,3.438C101.091,278.738,101.206,278.668,101.162,278.588Z" transform="translate(-44.594 -272.698)" fill="#263238"/>
      <path id="Path_21505" data-name="Path 21505" d="M101.156,277.45s-2.192-7.725,2.652-3.863c8.043,6.426,8.335,20.418,8.335,20.418s-14.31-8.317-16.1-13.8C93.4,272.059,101.156,277.45,101.156,277.45Z" transform="translate(-45.304 -272.506)" fill="#ff3567"/>
      <path id="Path_21506" data-name="Path 21506" d="M109.6,289l-.407-.636a4.04,4.04,0,0,0,0-.654v-1q0-.981.08-1.962c0-.088-.141-.08-.141,0,0,.636-.062,1.282-.08,1.918v1.379c-.557-.884-1.14-1.768-1.768-2.59l-.53-.725a15.1,15.1,0,0,1,0-2.528c0-.884,0-1.768.053-2.7,0-.088-.133-.08-.133,0,0,.928-.08,1.865-.124,2.8a16.7,16.7,0,0,0-.053,2c-1.388-1.883-2.846-3.695-4.331-5.5a.069.069,0,0,0-.106.088c.884,1.158,1.768,2.36,2.652,3.535-1.688-.389-3.394-.619-5.109-.884-.088,0-.124.124,0,.133,1.768.274,3.589.734,5.383,1.123h0c.681.963,1.361,1.936,2.033,2.908l.813,1.193h-.08l-.557-.08c-.389-.044-.787-.08-1.184-.106-.831-.062-1.653-.106-2.484-.15-.088,0-.08.133,0,.133a22.444,22.444,0,0,1,2.431.168l1.282.159.557.062h.159l1.379,2.024c.813,1.193,1.529,2.475,2.4,3.633a.064.064,0,0,0,.106-.071A37.069,37.069,0,0,0,109.6,289Z" transform="translate(-45.771 -273.235)" fill="#263238"/>
      <path id="Path_21507" data-name="Path 21507" d="M106.866,280.092v-.884a12.373,12.373,0,0,1,.071-1.9.071.071,0,1,0-.133,0c0,.619-.071,1.246-.1,1.874v1.379a1.281,1.281,0,0,0,0,.451.062.062,0,0,0,.115,0,1.1,1.1,0,0,0,0-.415Z" transform="translate(-46.604 -273.053)" fill="#263238"/>
      <path id="Path_21508" data-name="Path 21508" d="M104.435,284.045c-.539-.1-1.078-.124-1.618-.168s-1.176-.1-1.768-.177c-.1,0-.115.133,0,.133,1.131.08,2.254.274,3.385.318C104.479,284.151,104.532,284.054,104.435,284.045Z" transform="translate(-45.94 -273.806)" fill="#263238"/>
      <path id="Path_21509" data-name="Path 21509" d="M109.995,284.131v1.626a1.237,1.237,0,0,0,0,.477h.053a.46.46,0,0,0,0-.221V284.14C110.048,284.078,109.88,284.007,109.995,284.131Z" transform="translate(-46.983 -273.848)" fill="#263238"/>
      <path id="Path_21510" data-name="Path 21510" d="M99.869,325.065c-3.014-2.263-5.719-5.507-9.723-5.666-3.341-.133-5.683,2.386-7.018,5.188a28.338,28.338,0,0,0-1.635,4.614q-.884,3.164-1.706,6.373-1.573,6.3-2.652,12.7c-.407,2.378-.787,4.755-1.087,7.151a60.106,60.106,0,0,0-.7,7.327.38.38,0,0,0,.742.08c.415-2,.583-4.066.884-6.09s.61-4.066.955-6.09q1.016-6.081,2.4-12.109c.884-3.783,1.706-7.628,2.934-11.314.884-2.652,2.28-5.736,5.135-6.682,4.34-1.45,8.291,2.227,11.49,4.614C99.842,325.233,99.94,325.118,99.869,325.065Z" transform="translate(-42.965 -277.951)" fill="#263238"/>
      <path id="Path_21511" data-name="Path 21511" d="M98.192,322.088s-2.767-7.955,1.246-9.475c6.01-2.325,21.752,15.406,18.676,42.568,0,0-12.171-6.7-21.151-14.23s-11.278-17.412-7.319-19.931S98.192,322.088,98.192,322.088Z" transform="translate(-44.408 -277.14)" fill="#ff3567"/>
      <path id="Path_21512" data-name="Path 21512" d="M117.3,350.457a20.4,20.4,0,0,0-1.467-2.74c-.513-.928-1.034-1.856-1.564-2.775-1.052-1.768-2.086-3.58-3.155-5.356l-.53-.884a.525.525,0,0,1,.071-.318c.053-.256.115-.521.177-.787.133-.583.239-1.184.345-1.768.221-1.158.424-2.342.734-3.483,0-.08-.115-.115-.133,0-.247,1.167-.619,2.307-.963,3.447-.168.557-.345,1.114-.495,1.679-.053.194-.1.389-.15.583-1.29-2.121-2.652-4.225-4.03-6.267a2.563,2.563,0,0,0,.141-.884c.044-.389.088-.787.141-1.184.106-.884.2-1.768.336-2.652a51.843,51.843,0,0,1,.955-5.206.071.071,0,0,0-.133,0c-.433,1.715-.884,3.421-1.229,5.162-.159.884-.309,1.7-.424,2.554-.062.433-.106.884-.15,1.29a.966.966,0,0,1-.053.389c-.433-.61-.884-1.229-1.326-1.83-1.388-1.83-2.828-3.615-4.278-5.392-.062-.062-.177,0-.115.08a96.9,96.9,0,0,1,6.841,10l1.184,1.918-.4-.053c-.5-.062-1.025-.1-1.529-.141l-3.076-.265c-2.051-.168-4.1-.292-6.187-.513a.071.071,0,1,0,0,.141c2.068.239,4.137.566,6.187.884,1.016.15,2.033.283,3.049.415a11.891,11.891,0,0,0,2.342.239c.8,1.308,1.617,2.652,2.413,3.924h-7.425c-.088,0-.08.133,0,.133,1.335,0,2.652.088,4,.159.636,0,1.273.071,1.9.115l.955.062a2.014,2.014,0,0,0,.831,0c.681,1.114,1.37,2.219,2.059,3.332s1.264,2.051,1.909,3.067a25.246,25.246,0,0,0,2.068,3.1C117.3,350.581,117.372,350.537,117.3,350.457Z" transform="translate(-45.451 -278.232)" fill="#263238"/>
      <path id="Path_21513" data-name="Path 21513" d="M113.307,329.363a19.807,19.807,0,0,1-.539,2.59c-.23.884-.486,1.768-.769,2.607a.088.088,0,1,0,.168.053c.265-.884.5-1.715.716-2.59s.354-1.768.566-2.652C113.466,329.3,113.316,329.274,113.307,329.363Z" transform="translate(-47.22 -279.102)" fill="#263238"/>
      <path id="Path_21514" data-name="Path 21514" d="M102.26,335.227a.972.972,0,0,0-.663-.248l-1.149-.159c-.707-.1-1.423-.177-2.139-.256-1.476-.177-2.961-.318-4.419-.5-.088,0-.115.124,0,.133,1.405.168,2.793.38,4.19.566l2.051.265.99.115a3.536,3.536,0,0,1,1.131.186C102.26,335.359,102.313,335.271,102.26,335.227Z" transform="translate(-45.109 -279.654)" fill="#263238"/>
      <path id="Path_21515" data-name="Path 21515" d="M112.88,348.877c-.7-.053-1.405-.08-2.1-.1H109.2a2.73,2.73,0,0,1-.663,0c-.1,0-.106.15,0,.133a2.908,2.908,0,0,1,.619,0h.557l1.061.071c.7,0,1.405.08,2.1.08C112.959,349.036,112.959,348.886,112.88,348.877Z" transform="translate(-46.81 -281.363)" fill="#263238"/>
      <path id="Path_21516" data-name="Path 21516" d="M118.255,344.984c.08-.4.159-.8.23-1.2.141-.778.283-1.564.433-2.342,0-.088-.115-.115-.141,0-.168.76-.345,1.529-.513,2.289-.088.38-.168.76-.247,1.14-.044.177-.08.354-.115.53a1.529,1.529,0,0,0-.062.566c0,.062.106.115.15,0A2.74,2.74,0,0,0,118.255,344.984Z" transform="translate(-47.898 -280.502)" fill="#263238"/>
      <path id="Path_21517" data-name="Path 21517" d="M71.72,365.01l.84,9.634,2.881,32.518h25.465l3.6-32.518,1.061-9.634Z" transform="translate(-42.543 -283.248)" fill="#1e1e1e"/>
      <path id="Path_21518" data-name="Path 21518" d="M71.72,365.01l.84,9.634H104.5l1.061-9.634Z" transform="translate(-42.543 -283.248)" fill="#263238"/>
      <rect id="Rectangle_5652" data-name="Rectangle 5652" width="38.891" height="7.813" transform="translate(65.549 86.95) rotate(180)" fill="#1e1e1e"/>
    </g>
    <g id="freepik--Character--inject-23" transform="translate(-9473.522 -6190.432)">
      <path id="Path_21519" data-name="Path 21519" d="M205.029,376.78s-18.561,37.167-18.561,37.2c-1.538,7.672-2.74,14.434-3.041,17.987a.133.133,0,0,0,0,.062,5.365,5.365,0,0,0,.1,2.484s0,0,0,.053c1.971,2.006,62.976,16.051,65.266,15.821s1.83-6.771-.106-9.21-22.839-18.243-22.839-18.243l18.181-37.247Z" transform="translate(-139.858 -119.824)" fill="#ad6359"/>
      <path id="Path_21520" data-name="Path 21520" d="M247.931,454.115c-2.289.221-62.375-13.824-64.346-15.83v-.053a5.5,5.5,0,0,1-.1-2.484.15.15,0,0,1,0-.062c.3-3.535,1.5-10.315,3.032-18,0,0,2.386-4.764,4.419-8.9l38.484,10.554-3.536,7.292s20.02,15.83,21.964,18.261S250.22,453.894,247.931,454.115Z" transform="translate(-139.865 -123.541)" fill="#ebebeb"/>
      <path id="Path_21521" data-name="Path 21521" d="M248.734,453.942c-2.325.177-63.463-15.415-65.407-17.483-.751-.778,1-9.82,3.429-20.683l.08-.336,39.562,9.617-.186.663s20.736,16.431,22.636,18.942S251.076,453.738,248.734,453.942Z" transform="translate(-139.837 -124.313)" fill="#263238"/>
      <path id="Path_21522" data-name="Path 21522" d="M249.073,454.03c-10.244-2.881-51.831-13.532-62.172-15.6-.088,0-.1,0,0,.062,10.094,3.076,51.76,13.391,62.146,15.707C249.25,454.251,249.285,454.092,249.073,454.03Z" transform="translate(-140.265 -126.983)" fill="#fff"/>
      <path id="Path_21523" data-name="Path 21523" d="M233.878,427.9c-3.863-1.768-8.98-2.431-12.816-.336-.15.08,0,.292.115.283a59.172,59.172,0,0,1,12.56.557.265.265,0,0,0,.141-.5Z" transform="translate(-144.232 -125.57)" fill="#fff"/>
      <path id="Path_21524" data-name="Path 21524" d="M236.687,430.784c-3.863-1.768-8.989-2.431-12.825-.336-.141.08,0,.292.115.283a59.16,59.16,0,0,1,12.56.557.265.265,0,0,0,.15-.5Z" transform="translate(-144.558 -125.905)" fill="#fff"/>
      <path id="Path_21525" data-name="Path 21525" d="M239.488,433.585c-3.863-1.768-8.98-2.431-12.816-.336-.15.08,0,.292.106.283a58.562,58.562,0,0,1,12.56.566.274.274,0,0,0,.15-.513Z" transform="translate(-144.884 -126.23)" fill="#fff"/>
      <path id="Path_21526" data-name="Path 21526" d="M249.81,454.425c.981.7-.186,4.313-1.052,4.419s-67.458-17.2-68.527-17.739.38-4.508,1.768-4.375S249.81,454.425,249.81,454.425Z" transform="translate(-139.455 -126.785)" fill="#ff3567"/>
      <path id="Path_21527" data-name="Path 21527" d="M195.9,425.931c-3.871-3.35-9.077,2.652-5.206,6.01S199.768,429.281,195.9,425.931Z" transform="translate(-140.555 -125.417)" fill="#fff"/>
      <path id="Path_21528" data-name="Path 21528" d="M192.08,380.457l44.609,11.252s41.587-75.05,40.658-94.124c-1.282-26.34-32.173-107.215-32.173-107.215h-36.99s24.545,87.46,24.864,102.176C233.216,300.245,192.08,380.457,192.08,380.457Z" transform="translate(-140.874 -98.178)" fill="#1e1e1e"/>
      <path id="Path_21529" data-name="Path 21529" d="M239.516,406.55c-2.378-.946-23.617-7.071-39.456-10.43a.08.08,0,0,0,0,.159c4.985,1.768,36.469,10.041,39.421,10.447C239.542,406.744,239.622,406.62,239.516,406.55Z" transform="translate(-141.792 -122.07)" fill="#263238"/>
      <path id="Path_21530" data-name="Path 21530" d="M237.8,274.45c-2.934-12.374-6.037-24.66-9.4-36.9s-6.859-24.572-10.739-36.716c-.477-1.476-.972-2.961-1.45-4.419a.189.189,0,1,0-.362.106c3.465,12.091,6.983,24.165,10.271,36.3s6.443,24.307,9.4,36.522q1.1,4.552,2.165,9.086a80.432,80.432,0,0,1,1.892,9.466,24.545,24.545,0,0,1-.61,9.113,51.422,51.422,0,0,1-3.288,8.476q-7.955,17.368-16,34.745c-5.3,11.623-6.187,14.266-11.287,25.977-.636,1.458-1.264,2.908-1.874,4.375-.044.1.1.177.141.08,5.834-11.49,6.735-14.248,12.153-25.924s10.881-23.5,16.29-35.276c2.439-5.3,5.3-10.721,5.674-16.661C241.168,286.6,239.224,280.39,237.8,274.45Z" transform="translate(-142.551 -98.864)" fill="#263238"/>
      <path id="Path_21531" data-name="Path 21531" d="M240.46,393.4s1.432,40.915,1.432,40.95c.23,7.822.575,14.681,1.087,18.208a.15.15,0,0,0,0,.062,5.612,5.612,0,0,0,.645,2.4.057.057,0,0,0,.053.053c2.378,1.5,64.974,1.467,67.175.734s.256-7.018-2.174-8.954-26.419-12.639-26.419-12.639l-1.812-40.888Z" transform="translate(-146.492 -121.745)" fill="#ad6359"/>
      <path id="Path_21532" data-name="Path 21532" d="M241.75,430.2s.292,8.37.292,8.406c.23,7.822.575,14.681,1.087,18.208a.15.15,0,0,0,0,.062,10.7,10.7,0,0,0,.645,2.4.057.057,0,0,0,.053.053c2.378,1.5,64.974,1.467,67.175.734s.256-7.018-2.174-8.954-26.419-12.639-26.419-12.639l-.177-8.529Z" transform="translate(-146.642 -125.996)" fill="#ebebeb"/>
      <path id="Path_21533" data-name="Path 21533" d="M311.036,460.886c-2.21.716-65.31-.265-67.688-1.83-.884-.583-1.308-9.785-1.458-20.913v-.353l40.756.186v.689s23.98,11.181,26.419,13.179S313.254,460.188,311.036,460.886Z" transform="translate(-146.658 -126.909)" fill="#263238"/>
      <path id="Path_21534" data-name="Path 21534" d="M310.93,461.027c-10.607-.424-53.554-1.14-64.1-.751-.088,0-.088.062,0,.062,10.527.654,53.457,1.025,64.09.884C311.151,461.2,311.151,461.035,310.93,461.027Z" transform="translate(-147.224 -129.507)" fill="#fff"/>
      <path id="Path_21535" data-name="Path 21535" d="M290.135,438.951c-4.181-.884-9.307-.283-12.551,2.652-.124.115,0,.292.177.247a59.086,59.086,0,0,1,12.374-2.369.274.274,0,0,0,0-.53Z" transform="translate(-150.797 -127)" fill="#fff"/>
      <path id="Path_21536" data-name="Path 21536" d="M293.515,441.041c-4.172-.884-9.3-.283-12.542,2.652-.133.115,0,.292.168.256a59.322,59.322,0,0,1,12.374-2.378.265.265,0,1,0,0-.53Z" transform="translate(-151.19 -127.243)" fill="#fff"/>
      <path id="Path_21537" data-name="Path 21537" d="M296.9,443.151c-4.172-.884-9.307-.283-12.551,2.652-.124.106,0,.283.177.247a58.523,58.523,0,0,1,12.374-2.369.265.265,0,0,0,0-.53Z" transform="translate(-151.583 -127.488)" fill="#fff"/>
      <path id="Path_21538" data-name="Path 21538" d="M311.866,461.183c1.123.451.822,4.243,0,4.534s-69.606-1.078-70.772-1.361-.672-4.472.689-4.658S311.866,461.183,311.866,461.183Z" transform="translate(-146.49 -129.451)" fill="#ff3567"/>
      <path id="Path_21539" data-name="Path 21539" d="M252.795,445.937c-4.543-2.36-8.211,4.693-3.668,7.071S257.338,448.271,252.795,445.937Z" transform="translate(-147.257 -127.799)" fill="#fff"/>
      <path id="Path_21540" data-name="Path 21540" d="M240.75,190.325h0c-.159.76-9.378,37.211-10.536,37.9-1.3.769,33.508,47.606,37.636,70.6,2.652,14.708,8.662,100.426,8.662,100.426H232.167s-4.34-72.8-5.8-96.785c-.566-9.307-36.831-49.259-39.819-79.982-.884-9.06,6.47-32.191,6.47-32.191Z" transform="translate(-140.224 -98.169)" fill="#1e1e1e"/>
      <path id="Path_21541" data-name="Path 21541" d="M236.329,380.017c-.521-12.056-1.008-24.139-1.883-36.186-.495-6.815-1.476-13.426-2.148-20.232,0-.354-.327-.442-.318-.071.318,12.109,1.317,24.086,1.962,36.186s1.264,14.929,1.945,26.985c.389,6.824.725,13.656,1.255,20.471a.088.088,0,0,0,.168,0C237.3,395.052,236.859,392.118,236.329,380.017Z" transform="translate(-145.507 -113.613)" fill="#263238"/>
      <path id="Path_21542" data-name="Path 21542" d="M273.614,304.357a64.437,64.437,0,0,0-1.847-9.458,47.881,47.881,0,0,0-3.6-8.662c-3.023-5.8-6.461-11.411-9.776-17.041s-6.771-11.393-10.271-17.015q-2.952-4.729-5.94-9.457c-2.006-3.191-4.145-6.3-6.231-9.431-.08-.124-.274,0-.194.115,3.394,5.692,6.753,11.4,10.147,17.094s6.735,11.4,10.085,17.121,6.594,11.252,9.723,16.953a58.265,58.265,0,0,1,4,8.468,51.761,51.761,0,0,1,2.245,9.325c1.176,7.372,2.148,14.787,3.633,22.1,0,.1.168.071.159,0C275.3,317.757,274.507,311.03,273.614,304.357Z" transform="translate(-145.944 -103.157)" fill="#263238"/>
      <path id="Path_21543" data-name="Path 21543" d="M278.933,417.97c-2.537-.327-21.876-1-38.051-.309a.088.088,0,0,0,0,.168c5.3.468,35.055.672,38.007.327C278.986,418.147,279.048,417.988,278.933,417.97Z" transform="translate(-146.534 -124.537)" fill="#263238"/>
      <path id="Path_21544" data-name="Path 21544" d="M240.791,230.347a83.079,83.079,0,0,0-13.09,6.09.15.15,0,0,0,.115.274c4.419-1.892,8.91-3.7,13.214-5.842a.287.287,0,1,0-.239-.521Z" transform="translate(-145.002 -102.817)" fill="#263238"/>
      <path id="Path_21545" data-name="Path 21545" d="M242.818,196.153c0-.15-.283-.186-.283,0A147.138,147.138,0,0,1,241.8,210.9c-.2,2.272-2.033,14.823-5.975,13.9-.654-.15-1-.8-1.1-1.768a15.911,15.911,0,0,1,.521-3.845c.433-2.652.787-5.3,1.016-7.955a72.583,72.583,0,0,0-.159-14.858.133.133,0,0,0-.256,0,136.927,136.927,0,0,1-1.2,20.5c-.495,3.27-2.139,8.185,1.282,8.689s5.728-7.725,6.187-9.979A75.271,75.271,0,0,0,242.818,196.153Z" transform="translate(-145.721 -98.835)" fill="#263238"/>
      <path id="Path_21546" data-name="Path 21546" d="M236.065,228.918a20.432,20.432,0,0,0-.884,2.6,5.772,5.772,0,0,0-.371,2.139c0,.141.2.15.274.062a7.893,7.893,0,0,0,.884-2.086c.292-.8.61-1.6.884-2.413a.442.442,0,0,0-.787-.3Z" transform="translate(-145.836 -102.635)" fill="#263238"/>
      <path id="Path_21547" data-name="Path 21547" d="M232.8,315.775c-.407-6.187-.389-12.737-3.023-18.491a61.873,61.873,0,0,0-4.826-8.043q-2.7-4.11-5.3-8.291c-7-11.119-13.691-22.459-19.817-34.091-2.943-5.6-5.666-11.376-7.142-17.563a55.941,55.941,0,0,1-.813-19.817c.2-1.644.433-3.279.707-4.914,0-.115-.159-.168-.186-.044a65.406,65.406,0,0,0-1.458,19.18,53.527,53.527,0,0,0,5.118,17.678c2.7,5.851,5.913,11.49,9.077,17.077q4.888,8.662,10.094,17.156c3.447,5.621,7.071,11.137,10.668,16.67a31.935,31.935,0,0,1,4.243,8.529,46.353,46.353,0,0,1,1.352,9.678c.884,13.709,4.366,59.264,5.586,72.9.159,1.768.309,3.465.468,5.188a.119.119,0,0,0,.239,0C237.244,374.889,233.709,329.431,232.8,315.775Z" transform="translate(-140.722 -99.813)" fill="#263238"/>
      <path id="Path_21548" data-name="Path 21548" d="M208.792,203.882c0-.1-.159-.062-.168,0-.124,3.81,0,7.734-1.485,11.331-1.343,3.3-4.039,5.613-7.071,7.345a55.9,55.9,0,0,1-5.418,2.652c-.133.053-.08.265.062.221,3.536-1.114,7.071-2.325,10-4.658a13.068,13.068,0,0,0,4.64-10.059,33.728,33.728,0,0,0-.557-6.832Z" transform="translate(-141.164 -99.74)" fill="#263238"/>
      <path id="Path_21549" data-name="Path 21549" d="M245.68,136.05c2.846,7.195,21.089,33.066,33,34.286,12.144,1.255,38.431-16.458,41.215-18.3,1.821-1.193-10.5-22.406-13.329-20.63-7.619,4.8-25.544,16.856-28.974,15.212-7.2-3.438-12.754-8.229-23.122-15.026C247.244,126.849,242.542,128.1,245.68,136.05Z" transform="translate(-146.983 -91.031)" fill="#ad6359"/>
      <path id="Path_21550" data-name="Path 21550" d="M343.465,139.777c-5.9,6.072-15.229,10.73-18.217,11.1s-12.887-16.794-11.72-19.64,13.311-18.305,18.623-19.313S347.3,135.853,343.465,139.777Z" transform="translate(-154.966 -89.066)" fill="#ad6359"/>
      <path id="Path_21551" data-name="Path 21551" d="M336.772,115.253s-5.7,2.546-7.539,3.536c-1.573.822-4.72,2.731-4.084,5.772s4.835,1.52,5.135,1.423c-.247.141-4.517,2.767-3.536,5.754s4.976.955,5.233.822c-.106.115,8.635-6.187,10.792-4.782,2.431,1.618.53,12.312.557,12.374S362.4,125,361.1,121.538c-1.547-4.145-14.3,5.551-14.3,5.551s2.5-2.837,1.83-5.215c-.354-1.22-2.607-1.768-2.607-1.768a3.677,3.677,0,0,0,1.034-3.677c-.583-1.662-2.758-1.936-2.758-1.936s15.654-5.3,11.888-9.537c-2.307-2.6-18.3,4.57-22.654,6.1C333.5,111.055,337.223,112.531,336.772,115.253Z" transform="translate(-156.316 -88.195)" fill="#ad6359"/>
      <path id="Path_21552" data-name="Path 21552" d="M344.446,115.709v-.08a26.1,26.1,0,0,0-14.893,4.472c-.133.1,0,.362.141.283a53.13,53.13,0,0,1,14.752-4.676Z" transform="translate(-156.831 -89.499)" fill="#263238"/>
      <path id="Path_21553" data-name="Path 21553" d="M346.7,122.106c.062,0,.044-.106,0-.106a24.475,24.475,0,0,0-15.91,5.887c-.15.141-.15.415,0,.274C333.915,125.721,341.888,122.822,346.7,122.106Z" transform="translate(-156.969 -90.239)" fill="#263238"/>
      <path id="Path_21554" data-name="Path 21554" d="M333.1,135.89c4.375-3.668,6.664-4.313,12.2-5.515.071,0,.044-.115,0-.124a13.081,13.081,0,0,0-6.1.831,14.018,14.018,0,0,0-6.187,4.658C332.908,135.819,333,135.97,333.1,135.89Z" transform="translate(-157.234 -91.189)" fill="#263238"/>
      <path id="Path_21555" data-name="Path 21555" d="M329.185,120.65a13.852,13.852,0,0,0-2.581,1.838,5.94,5.94,0,0,0-1.856,2.652,2.36,2.36,0,0,0,.159,1.715,3.368,3.368,0,0,0,1.14,1.3,3.447,3.447,0,0,0,1.953.53,8.671,8.671,0,0,1,1.016-.884l.407.707a4.587,4.587,0,0,1-1.423.212,9.722,9.722,0,0,0-1.273,1.52,4.287,4.287,0,0,0-.681,3.429,3.121,3.121,0,0,0,1,1.564,2.846,2.846,0,0,0,1.768.61,5.5,5.5,0,0,0,1.688-.3,8.35,8.35,0,0,1,1.016-1.441l.583.689.062-.071,1.821-2.051-2.369,1.352a5.948,5.948,0,0,1-2.793.884,1.936,1.936,0,0,1-1.918-1.485,3.394,3.394,0,0,1,.539-2.7,9.527,9.527,0,0,1,2.024-2.272l1.768-1.476-2.174.76a3.341,3.341,0,0,1-2.731-.115,2.7,2.7,0,0,1-.981-.99,1.9,1.9,0,0,1-.186-1.344,5.781,5.781,0,0,1,1.565-2.572,17.037,17.037,0,0,1,2.457-2.059Z" transform="translate(-156.269 -90.082)" fill="#263238"/>
      <path id="Path_21556" data-name="Path 21556" d="M332.346,135.87a8.348,8.348,0,0,0-1.016,1.441,9.393,9.393,0,0,0,1.6-.751Z" transform="translate(-157.044 -91.85)" fill="#263238"/>
      <path id="Path_21557" data-name="Path 21557" d="M329.456,128.7c-.354.292-.7.6-1.016.884a4.588,4.588,0,0,0,1.423-.212Z" transform="translate(-156.708 -91.017)" fill="#263238"/>
      <path id="Path_21558" data-name="Path 21558" d="M315.55,128.8s6.717-21.469,13.824-14.734c2.112,2.006,8.388,12.746,6.258,14.045-2.758,1.688-6.187-2.307-7.955-5.162,0,0-1.255,7.628-6.824,8.335A5.577,5.577,0,0,1,315.55,128.8Z" transform="translate(-155.212 -89.166)" fill="#ad6359"/>
      <path id="Path_21559" data-name="Path 21559" d="M329.6,113.65a11.907,11.907,0,0,1,2.422,2.431,26.883,26.883,0,0,1,1.936,2.846,39.778,39.778,0,0,1,3.041,6.187,6.356,6.356,0,0,1,.415,1.768,2.378,2.378,0,0,1-.15,1.034,1.716,1.716,0,0,1-.283.5,1.857,1.857,0,0,1-.442.362,2.855,2.855,0,0,1-1.971.354,5.5,5.5,0,0,1-1.768-.672,10.51,10.51,0,0,1-2.652-2.369,23.3,23.3,0,0,1-2.006-2.846l.734-.15a14.412,14.412,0,0,1-.769,2.528,12.833,12.833,0,0,1-1.211,2.316,8.945,8.945,0,0,1-1.768,1.927,6.7,6.7,0,0,1-2.263,1.22,7.691,7.691,0,0,0,2.086-1.432,9.442,9.442,0,0,0,1.52-1.98,13.565,13.565,0,0,0,1.034-2.28,13.136,13.136,0,0,0,.583-2.413l.141-1.016.592.884a24.1,24.1,0,0,0,2.015,2.652,10.138,10.138,0,0,0,2.44,2.139,2.82,2.82,0,0,0,2.74.336c.689-.354.442-1.582.115-2.59s-.8-2.086-1.255-3.12-.937-2.068-1.458-3.067A21.937,21.937,0,0,0,329.6,113.65Z" transform="translate(-156.06 -89.27)" fill="#263238"/>
      <path id="Path_21560" data-name="Path 21560" d="M316.941,154.477l-14.5-21.85a14.859,14.859,0,0,0-6.779,1.626c-6.311,2.988-17.094,11.49-18.7,10.889-2.607-.884-12.189-7.619-20.621-13.691s-20.329-8.839-10.341,8.026,24.634,30.052,30.936,31.82c4.136,1.158,25.482-4.587,35.665-11.013A9.838,9.838,0,0,0,316.941,154.477Z" transform="translate(-146.694 -90.79)" fill="#ff3567"/>
      <path id="Path_21561" data-name="Path 21561" d="M317.182,160.492a31.238,31.238,0,0,1-1.945-2.934c-.566-.884-1.158-1.768-1.715-2.652-1.229-1.927-2.466-3.854-3.686-5.789s-2.431-3.854-3.633-5.8-2.44-3.836-3.536-5.825a.08.08,0,0,1,.133-.088c1.45,1.768,2.722,3.65,4.013,5.524s2.493,3.721,3.686,5.613,2.386,3.889,3.535,5.86c.557.946,1.078,1.918,1.6,2.881a26.312,26.312,0,0,1,1.635,3.129C317.3,160.492,317.226,160.545,317.182,160.492Z" transform="translate(-153.714 -92.024)" fill="#263238"/>
      <path id="Path_21562" data-name="Path 21562" d="M274.356,170.246c-7.159-3.871-19.578-15.866-28.355-30.7-4.322-7.3-4.543-10.916-2.714-12.189Z" transform="translate(-146.694 -90.862)" opacity="0.1"/>
      <path id="Path_21563" data-name="Path 21563" d="M187.442,204.318l65.982,2.74c.283-.265,2.758-1.237,2.378-10.262-.884-20.541-7.566-57.275-11.685-65.213a13.338,13.338,0,0,0-17.978-6.187c-3.739,2.148-7.212,5.012-11.685,11.163-10.978,15.132-23.158,42.126-27.4,57.046C185.25,199.784,187.31,204.132,187.442,204.318Z" transform="translate(-140.205 -90.471)" fill="#ff3567"/>
      <path id="Path_21564" data-name="Path 21564" d="M235.916,207.425c6.47.265,12.887.53,19.313.884l-.362.4-1.45-10,.212.283a7.955,7.955,0,0,1-2.917-2.563,12.454,12.454,0,0,1-1.644-3.465,20.552,20.552,0,0,1-.822-3.7,25.462,25.462,0,0,1-.247-3.774l.336.371-15.212-.831.327-.256-.583,2.342c-.212.778-.513,1.538-.76,2.3a22.45,22.45,0,0,1-.981,2.227l-.619,1.043c-.1.177-.2.354-.309.521l-.371.486a9.582,9.582,0,0,1-3.695,3.147,7.416,7.416,0,0,1-4.791.46l.177-.08-5.127,9.387Zm-14.672-10.333.044-.1h.133a7.186,7.186,0,0,0,4.534-.583,9.024,9.024,0,0,0,3.483-3.067l.345-.468c.106-.168.2-.336.3-.513l.583-1.016a23.02,23.02,0,0,0,.884-2.183c.23-.742.513-1.494.707-2.263l.539-2.307.062-.274h.265l15.22.742h.345v.354a25.487,25.487,0,0,0,.265,3.659,20.469,20.469,0,0,0,.8,3.536,12.234,12.234,0,0,0,1.547,3.253,7.159,7.159,0,0,0,2.607,2.325l.186.1v.194l1.388,10.006.062.415h-.424c-6.514-.345-13.037-.751-19.516-1.149l-19.286-1.211Z" transform="translate(-143.689 -97.476)" opacity="0.1"/>
      <path id="Path_21565" data-name="Path 21565" d="M217.694,127.267c-16.184,2.121-38.5,8.468-45.644,13.4-5,3.465-16.352,27.48-18.394,34.657-.884,3.094,21.673,13.815,23.476,10.889,2.157-3.536,12.2-31.183,13.258-31.307s19.3-9.935,30.6-17.819C233.4,128.452,224.04,126.437,217.694,127.267Z" transform="translate(-136.41 -90.831)" fill="#ad6359"/>
      <path id="Path_21566" data-name="Path 21566" d="M152.332,174.646l28.717,8.22a18.032,18.032,0,0,0,3.536-6.841c1.768-6.744,2.775-16.4,3.907-17.678,1.838-2.068,21.929-13.081,30.733-18.606s15.3-16.255-4.066-13.355-40.844,10.209-45.767,13.806c-3.465,2.546-11.6,15.91-16.184,24.97C151.281,168.962,152.332,174.646,152.332,174.646Z" transform="translate(-136.225 -90.692)" fill="#ff3567"/>
      <path id="Path_21567" data-name="Path 21567" d="M208.67,151.813c1.715-1.008,3.447-2,5.18-2.97q2.917-1.644,5.887-3.191c1.927-1.008,3.889-1.918,5.842-2.864.141-.071.265.168.124.247-2.519,1.352-5.012,2.767-7.5,4.181,1.335-.468,2.652-.884,4.031-1.335a.089.089,0,1,1,.062.168c-1.609.575-3.235,1.1-4.87,1.609l-1.768,1.016C212.268,150.575,207.062,152.758,208.67,151.813Z" transform="translate(-142.766 -92.652)" fill="#263238"/>
      <path id="Path_21568" data-name="Path 21568" d="M155.373,173a30.206,30.206,0,0,1,3.376,1.008c1,.309,2.006.6,3.005.884,2.174.7,4.358,1.379,6.532,2.086s4.34,1.405,6.505,2.13,4.331,1.37,6.443,2.21c.08,0,0,.159,0,.15-2.236-.415-4.419-1.061-6.62-1.671s-4.3-1.255-6.426-1.945-4.322-1.458-6.47-2.236c-1.025-.38-2.051-.787-3.067-1.193a27.816,27.816,0,0,1-3.262-1.352C155.284,173.071,155.311,173,155.373,173Z" transform="translate(-136.606 -96.161)" fill="#263238"/>
      <path id="Path_21569" data-name="Path 21569" d="M239.9,139s-7.707-12.807-14.46-14.319l-10.05,1.344s-2.024.124-2.289-1.211c-.672-3.3,3.933-8.22,11.216-11.234,6.664-2.749,17.881,1.087,24.97,5.073,6.815,3.836,9.723,9.184,6.231,13.373S239.9,139,239.9,139Z" transform="translate(-143.308 -89.153)" fill="#ff3567"/>
      <path id="Path_21570" data-name="Path 21570" d="M243.042,137.275s9.944-3.8,11.738-7.133-4.419-8.574-8.68-11.093c-6.567-3.907-11.49-4.711-16.493-1.953S243.042,137.275,243.042,137.275Z" transform="translate(-145.132 -89.481)" opacity="0.1"/>
      <path id="Path_21571" data-name="Path 21571" d="M237.157,108.41a26.239,26.239,0,0,1-1.768,4.419c-.716,1.043-3.739,1.308-3.739,1.308s2.572,2.112,3.482,2.219,3.032-1.556,3.032-1.556-2.484,2.988-3.748,2.731c-.787-.159,1.768.8,1.768.8a3.7,3.7,0,0,0,2.652-.23C240.038,117.426,237.157,108.41,237.157,108.41Z" transform="translate(-145.469 -88.661)" fill="#1e1e1e"/>
      <path id="Path_21572" data-name="Path 21572" d="M258.754,109.249c-.407,3.536,1.768,6.629,4.817,6.991s5.9-2.183,6.3-5.683-1.768-6.629-4.808-6.991S259.169,105.713,258.754,109.249Z" transform="translate(-148.611 -88.095)" fill="#455a64"/>
      <path id="Path_21573" data-name="Path 21573" d="M256.683,109.163c-.451,3.889,1.945,7.372,5.356,7.778s6.558-2.431,7.018-6.329-1.936-7.372-5.356-7.778S257.142,105.248,256.683,109.163Z" transform="translate(-148.37 -88.009)" fill="#c7c7c7"/>
      <path id="Path_21574" data-name="Path 21574" d="M244.992,136.478c-3.933.221-8.839-5.63-9.723-10.474-.053-.327,1.379-3.129,2.961-6.62.955-2.121,1.962-4.5,2.731-6.744l12.887,8.211a37.635,37.635,0,0,0-4.3,8.141,5.692,5.692,0,0,0-.221.955C248.369,132.978,246.76,136.372,244.992,136.478Z" transform="translate(-145.889 -89.152)" fill="#ad6359"/>
      <path id="Path_21575" data-name="Path 21575" d="M254.623,120.884a37.8,37.8,0,0,0-4.287,8.141,4.942,4.942,0,0,0-.221.955l-.053.15a8.931,8.931,0,0,1-1.45-.415c-8.132-3.032-7.257-12.9-6.55-16.794Z" transform="translate(-146.628 -89.185)" fill="#1e1e1e"/>
      <path id="Path_21576" data-name="Path 21576" d="M240.5,94.136c-2.431,4.941-2.1,20.4,1.052,24.342,4.57,5.719,13.258,7.6,18.438,1.83,5-5.6,4.225-25.739.592-29.451C255.225,85.4,244.079,86.852,240.5,94.136Z" transform="translate(-146.311 -86.24)" fill="#ad6359"/>
      <path id="Path_21577" data-name="Path 21577" d="M252.978,104.558a12.72,12.72,0,0,0,1.317-.424,2.254,2.254,0,0,0,1.255-.7.707.707,0,0,0-.1-.884,1.768,1.768,0,0,0-1.768-.23,2.652,2.652,0,0,0-1.52,1.087.76.76,0,0,0,.813,1.149Z" transform="translate(-147.837 -87.938)" fill="#1e1e1e"/>
      <path id="Path_21578" data-name="Path 21578" d="M264.69,104.816a11.487,11.487,0,0,1-1.335-.38,2.245,2.245,0,0,1-1.282-.636.716.716,0,0,1,.062-.884,1.768,1.768,0,0,1,1.768-.292,2.572,2.572,0,0,1,1.556,1.025.751.751,0,0,1-.769,1.167Z" transform="translate(-148.988 -87.976)" fill="#1e1e1e"/>
      <path id="Path_21579" data-name="Path 21579" d="M254.274,118.758c.247.256.486.592.884.636a2.759,2.759,0,0,0,1.123-.239s.07,0,0,.053a1.4,1.4,0,0,1-1.335.539,1.114,1.114,0,0,1-.8-.937A.079.079,0,0,1,254.274,118.758Z" transform="translate(-148.082 -89.861)" fill="#1e1e1e"/>
      <path id="Path_21580" data-name="Path 21580" d="M255.607,113.806a3.536,3.536,0,0,0,2.333,1.626,4.092,4.092,0,0,0,1.273.088h.477a.256.256,0,0,0,.212-.221h0a.4.4,0,0,0,0-.106h0v-.1c.044-.8,0-2.015,0-2.015.292.15,1.768.884,1.768.433a53.3,53.3,0,0,0-1.123-10.757.1.1,0,0,0-.194,0c0,3.341.566,6.656.61,10.014a5.993,5.993,0,0,0-1.662-.548c-.115,0,.141,2.36.1,2.722h0a4.9,4.9,0,0,1-3.642-1.229C255.634,113.647,255.545,113.717,255.607,113.806Z" transform="translate(-148.249 -87.993)" fill="#1e1e1e"/>
      <path id="Path_21581" data-name="Path 21581" d="M258.7,116.56a4.163,4.163,0,0,1-1.715,1.264,1.847,1.847,0,0,1-1.158,0c-.822-.239-.822-1-.654-1.644a4.356,4.356,0,0,1,.389-.99A5.507,5.507,0,0,0,258.7,116.56Z" transform="translate(-148.19 -89.448)" fill="#1e1e1e"/>
      <path id="Path_21582" data-name="Path 21582" d="M256.98,117.954a1.847,1.847,0,0,1-1.158,0c-.822-.239-.822-1-.654-1.644A1.953,1.953,0,0,1,256.98,117.954Z" transform="translate(-148.19 -89.578)" fill="#ff97b8"/>
      <path id="Path_21583" data-name="Path 21583" d="M252.39,107.418a3.1,3.1,0,0,1,.884-.088,3.049,3.049,0,0,1,.884.159,2.7,2.7,0,0,1,.813.468,2.253,2.253,0,0,1,.548.8l.212.548-.574-.133a6.5,6.5,0,0,0-1.255-.15,2.546,2.546,0,0,0-1.255.274,1.874,1.874,0,0,1,1.2-.734,3.642,3.642,0,0,1,1.45,0l-.362.415a2.157,2.157,0,0,0-.99-1.016,6.929,6.929,0,0,0-1.556-.539Z" transform="translate(-147.877 -88.535)" fill="#1e1e1e"/>
      <path id="Path_21584" data-name="Path 21584" d="M254,110.126a5.3,5.3,0,0,0,1.335-.327c.1-.044.486-.265.477-.336a2.4,2.4,0,0,0-.159-.663,1.688,1.688,0,0,1,.292.654.928.928,0,0,1-.53.539,2.731,2.731,0,0,1-1.414.133Z" transform="translate(-148.064 -88.706)" fill="#263238"/>
      <path id="Path_21585" data-name="Path 21585" d="M264.958,107.769a2.139,2.139,0,0,0-.751-.08,2.386,2.386,0,0,0-.769.159,2.1,2.1,0,0,0-1.193,1.273l-.194.548.513-.133a4.967,4.967,0,0,1,1.087-.159,2.024,2.024,0,0,1,1.1.265,1.626,1.626,0,0,0-1.052-.725,2.775,2.775,0,0,0-1.264,0l.309.415a2.086,2.086,0,0,1,.884-1.025,5.718,5.718,0,0,1,1.326-.539Z" transform="translate(-148.999 -88.577)" fill="#1e1e1e"/>
      <path id="Path_21586" data-name="Path 21586" d="M263.778,110.487a4.18,4.18,0,0,1-1.158-.318c-.08,0-.424-.265-.415-.336a2.7,2.7,0,0,1,.141-.663,1.918,1.918,0,0,0-.256.663.884.884,0,0,0,.46.521A2.077,2.077,0,0,0,263.778,110.487Z" transform="translate(-149.004 -88.749)" fill="#263238"/>
      <path id="Path_21587" data-name="Path 21587" d="M241.176,108.94s-2.7-5.356-5.082-4.464-.84,8.326,1.617,9.661a2.652,2.652,0,0,0,3.739-.884Z" transform="translate(-145.847 -88.193)" fill="#ad6359"/>
      <path id="Path_21588" data-name="Path 21588" d="M236.81,106.89v.062c1.715,1,2.431,2.828,2.846,4.667a1.467,1.467,0,0,0-2.121-.707c-.053,0,0,.106,0,.106a1.635,1.635,0,0,1,1.706.822,7.577,7.577,0,0,1,.645,1.564c.062.177.371.133.336-.062h0C240.6,110.982,239.267,107.482,236.81,106.89Z" transform="translate(-146.068 -88.485)" fill="#263238"/>
      <path id="Path_21589" data-name="Path 21589" d="M238.586,106.487c2.775-.212,5.9-8.742,5.9-8.742L244,102.678a11.755,11.755,0,0,0,3.739-3.191,8.706,8.706,0,0,0,1.184-4.738,20.992,20.992,0,0,0,5.763,4.632c1.167.575,9.113,2.351,9.228,1.768.345-1.679-.884-7.955-2.89-9.944-2.263-2.325-7.955-5.949-13.815-4.976-4.676.787-4.941,4.225-6.364,6.373,0,0-3.668,1.9-4.092,3.164C235.855,98.515,237.57,106.567,238.586,106.487Z" transform="translate(-146.033 -86.067)" fill="#1e1e1e"/>
      <path id="Path_21590" data-name="Path 21590" d="M239.46,102.9s0-7.707,2.59-11.782c2.846-4.525,11.632-5.3,15.229-2.784,0,0-6.364-2.8-12.215,3.341-2.466,2.59-3.058,11.614-3.058,11.614Z" transform="translate(-146.376 -86.165)" fill="#c7c7c7"/>
      <path id="Path_21591" data-name="Path 21591" d="M245.635,109.016c-.239,3.907-3.217,6.912-6.656,6.7s-6.019-3.536-5.772-7.478,3.217-6.912,6.656-6.7S245.883,105.074,245.635,109.016Z" transform="translate(-145.648 -87.862)" fill="#3b3a3a"/>
      <path id="Path_21592" data-name="Path 21592" d="M243.77,108.706c-.221,3.536-2.9,6.187-5.984,6.019s-5.409-3.2-5.188-6.717,2.9-6.187,5.984-6.019S243.991,105.189,243.77,108.706Z" transform="translate(-145.578 -87.915)" fill="#1e1e1e"/>
      <path id="Path_21593" data-name="Path 21593" d="M240.888,108.907a3.465,3.465,0,1,1-3.182-4.128,3.7,3.7,0,0,1,3.182,4.128Z" transform="translate(-145.745 -88.239)" fill="#333"/>
      <path id="Path_21594" data-name="Path 21594" d="M242.847,137.476s-4.632-16.193-14.628-20.276l-1.149,8.008s6.187,1.618,14.46,14.319Z" transform="translate(-144.937 -89.682)" fill="#ff3567"/>
      <path id="Path_21595" data-name="Path 21595" d="M223.87,125.59a13.78,13.78,0,0,1,5.356,2.192,25.289,25.289,0,0,1,4.472,3.7,45.087,45.087,0,0,1,3.8,4.419l1.688,2.386,1.582,2.457.186.274.292-.062a49.209,49.209,0,0,0,6.452-1.918,25.849,25.849,0,0,0,3.094-1.326,16.886,16.886,0,0,0,2.864-1.768,29.733,29.733,0,0,1-6.143,2.519c-1.061.327-2.13.61-3.208.884s-2.157.521-3.235.725l.477.212-1.573-2.528c-.557-.813-1.131-1.626-1.715-2.431s-1.237-1.556-1.892-2.3a24.956,24.956,0,0,0-2.077-2.139,23.536,23.536,0,0,0-4.782-3.536c-.433-.247-.884-.46-1.335-.672a9.333,9.333,0,0,0-1.4-.53A8.884,8.884,0,0,0,223.87,125.59Z" transform="translate(-144.566 -90.656)" fill="#263238"/>
      <path id="Path_21596" data-name="Path 21596" d="M216,127.563c1.768-.062,3.474-.247,5.118-.46a43.311,43.311,0,0,0,4.685-.884c-1.768.062-3.474.239-5.118.451A45.079,45.079,0,0,0,216,127.563Z" transform="translate(-143.652 -90.729)" fill="#263238"/>
      <path id="Path_21597" data-name="Path 21597" d="M240.414,136.79a59.673,59.673,0,0,0-2.563,9.846c-.407,2.333-.813,10.881,1.83,10.978s-.742-5.975-.8-10.527,1.635-7.6,2.2-10.235Z" transform="translate(-146.155 -91.957)" fill="#ff3567"/>
      <g id="Group_14155" data-name="Group 14155" transform="translate(91.399 44.833)" opacity="0.1">
        <path id="Path_21598" data-name="Path 21598" d="M240.414,136.79a59.673,59.673,0,0,0-2.563,9.846c-.407,2.333-.813,10.881,1.83,10.978s-.742-5.975-.8-10.527,1.635-7.6,2.2-10.235Z" transform="translate(-237.554 -136.79)"/>
      </g>
      <path id="Path_21599" data-name="Path 21599" d="M251.164,137.842a54.023,54.023,0,0,1,.557,9.21c-.044,2.157-1.184,9.82-3.536,9.449s1.715-5.188,2.563-9.228-.115-7.071-.168-9.493Z" transform="translate(-147.305 -92.072)" fill="#ff3567"/>
      <g id="Group_14156" data-name="Group 14156" transform="translate(100.157 45.708)" opacity="0.1">
        <path id="Path_21600" data-name="Path 21600" d="M251.164,137.842a54.023,54.023,0,0,1,.557,9.21c-.044,2.157-1.184,9.82-3.536,9.449s1.715-5.188,2.563-9.228-.115-7.071-.168-9.493Z" transform="translate(-247.462 -137.78)"/>
      </g>
      <path id="Path_21601" data-name="Path 21601" d="M185.043,208.123c-4.685,0-17.368-6.55-17.943-6.85l.2-.389c.15.071,14.708,7.593,18.411,6.735,1.671-.4,3.376-1.662,5.356-3.129,4.808-3.536,10.792-8,21.134-4.225.884.318,1.768.672,2.74,1.034,8.706,3.315,20.621,7.849,24.749-2.139,1.768-4.287.292-8.768-1.264-13.515-1.008-3.067-2.051-6.24-2.113-9.334-.053-2.581,1.016-6.276,2.245-10.607,2.3-7.955,4.906-17.032,1.255-22.1a170.951,170.951,0,0,1-9.723-15.388c-2.121-4.048.716-15.353.884-15.83l.424.106c0,.115-2.917,11.623-.884,15.512a168.413,168.413,0,0,0,9.643,15.335c3.783,5.25,1.149,14.407-1.184,22.495-1.167,4.075-2.272,7.955-2.227,10.43.053,3.023,1.087,6.187,2.086,9.21,1.52,4.605,3.085,9.378,1.264,13.815-4.269,10.386-16.422,5.754-25.288,2.378-.955-.362-1.865-.707-2.74-1.025-10.12-3.695-16,.663-20.718,4.163-2.015,1.494-3.765,2.793-5.524,3.2a3.313,3.313,0,0,1-.787.115Z" transform="translate(-137.974 -89.123)" fill="#333"/>
      <path id="Path_21602" data-name="Path 21602" d="M249.628,144.591c-.292-3.164,3.535-6.726,6.965-9.873a40.31,40.31,0,0,0,4.181-4.225c2.183-2.811,3.765-12.136,3.774-12.233l.442.071c-.071.389-1.609,9.528-3.871,12.436a39.506,39.506,0,0,1-4.225,4.269c-3.323,3.076-7.071,6.567-6.824,9.511Z" transform="translate(-147.555 -89.805)" fill="#263238"/>
      <path id="Path_21603" data-name="Path 21603" d="M142.481,191.986l30.352,11.641c.884.265,1.432,1.034,1.131,1.768l-5.3,12.277a1.865,1.865,0,0,1-2.219.769L136.1,206.791c-.928-.256-1.432-1.034-1.14-1.715l5.3-12.277a1.838,1.838,0,0,1,2.219-.813Z" transform="translate(-134.232 -98.353)" fill="#37474f"/>
      <path id="Path_21604" data-name="Path 21604" d="M141.751,193.615l30.344,11.641c.884.265,1.441,1.034,1.14,1.724l-5.3,12.277a1.865,1.865,0,0,1-2.219.76l-30.344-11.641c-.884-.265-1.441-1.034-1.14-1.715l5.3-12.277a1.856,1.856,0,0,1,2.219-.769Z" transform="translate(-134.147 -98.542)" fill="#333"/>
      <path id="Path_21605" data-name="Path 21605" d="M142.419,198.04c.681.415,1.423.274,1.653-.309a1.609,1.609,0,0,0-.8-1.812c-.672-.415-1.414-.274-1.644.309a1.609,1.609,0,0,0,.8,1.812Z" transform="translate(-135.009 -98.795)" fill="#263238"/>
      <rect id="Rectangle_5653" data-name="Rectangle 5653" width="7.036" height="2.015" transform="translate(42.25 118.807) rotate(-155.85)" fill="#ff3567"/>
      <path id="Path_21606" data-name="Path 21606" d="M162.136,222.562A4,4,0,0,1,158.6,219.7a5.94,5.94,0,0,1-3.977.716c-2.387-.53-2.652-4.508-2.652-4.508a7.336,7.336,0,0,1-4.313.08c-2.236-.734-3.032-4.711-3.032-4.711a6.444,6.444,0,0,1-3.845-2.316c-2.431-3.332-.1-9.184,1.361-12.922s9.06-12.967,10.333-14.867l24.05,9.1s-1.768,18.561-4.075,22.751C170.5,216.543,165.265,222.7,162.136,222.562Z" transform="translate(-134.795 -97.11)" fill="#ad6359"/>
      <path id="Path_21607" data-name="Path 21607" d="M161.154,223.35c2.97-3.217,4.835-7.133,6.921-10.942a.08.08,0,0,0-.133-.071c-2.024,3.81-4.782,7.168-6.965,10.889a.108.108,0,0,0,.177.124Z" transform="translate(-137.26 -100.727)" fill="#263238"/>
      <path id="Path_21608" data-name="Path 21608" d="M153.662,219.074a11.606,11.606,0,0,0,1.476-2.6c.468-.955.884-1.909,1.335-2.881q1.3-2.9,2.44-5.869c0-.088-.1-.168-.133-.071-.884,1.927-1.768,3.845-2.652,5.736-.468.946-.946,1.883-1.432,2.828a13.259,13.259,0,0,0-1.246,2.714.15.15,0,0,0,.212.141Z" transform="translate(-136.389 -100.18)" fill="#263238"/>
      <path id="Path_21609" data-name="Path 21609" d="M145.31,213.8a7.955,7.955,0,0,0,1.211-2.4q.557-1.326,1.14-2.652c.76-1.768,1.529-3.536,2.36-5.3,0-.088-.088-.159-.133-.071-.884,1.768-1.724,3.536-2.563,5.3-.407.884-.813,1.768-1.211,2.652a7.371,7.371,0,0,0-.884,2.475.053.053,0,0,0,.08,0Z" transform="translate(-135.434 -99.684)" fill="#263238"/>
    </g>
    <g id="freepik--speech-bubble--inject-23" transform="translate(-9351.854 -6218.612)">
      <path id="Path_21610" data-name="Path 21610" d="M316.26,76.618a20.117,20.117,0,0,1-33.587,12.719l-10.1,1.476,5.038-8.7a19.914,19.914,0,0,1-1.388-9.723,20.131,20.131,0,0,1,40.04,4.225Z" transform="translate(-271.889 -54.206)" fill="#fff"/>
      <path id="Path_21611" data-name="Path 21611" d="M316.171,76.6A20.33,20.33,0,0,1,312.1,86.787a21.557,21.557,0,0,1-1.821,2.1,22.76,22.76,0,0,1-2.121,1.768,20.329,20.329,0,0,1-10.288,4.022,21.043,21.043,0,0,1-2.793.053,18.356,18.356,0,0,1-2.784-.292,20.25,20.25,0,0,1-9.952-4.914l.239.071-10.05,1.547-.734.115.371-.645,5-8.715v.345a20.329,20.329,0,0,1,25.217-27.02,20.55,20.55,0,0,1,7.752,4.755A20.267,20.267,0,0,1,316.171,76.6Zm0,0A19.939,19.939,0,0,0,285.049,58.1a20.665,20.665,0,0,0-6,6.567,19.905,19.905,0,0,0-2.554,8.512,20.179,20.179,0,0,0,1.414,8.759l.08.186-.1.159-5.065,8.68-.362-.53,10.076-1.405h.133l.106.088a19.763,19.763,0,0,0,9.625,4.959,16.715,16.715,0,0,0,2.731.336,19.022,19.022,0,0,0,2.749,0,19.95,19.95,0,0,0,5.374-1.176,18.8,18.8,0,0,0,4.852-2.652,22.578,22.578,0,0,0,2.121-1.768,21.5,21.5,0,0,0,1.794-2.095A20.206,20.206,0,0,0,316.171,76.6Z" transform="translate(-271.8 -54.184)" fill="#263238"/>
      <path id="Path_21612" data-name="Path 21612" d="M306.513,79.931a26.331,26.331,0,0,1-8.45,7.336,26.331,26.331,0,0,1-8.45-7.336c-2.97-3.933-2.828-10.094,1.432-11.429,4.7-1.476,7.018,5.6,7.018,5.6s2.342-7.124,7.018-5.6C309.315,69.881,309.474,75.989,306.513,79.931Z" transform="translate(-273.633 -55.822)" fill="#ff3567"/>
    </g>
    <g id="freepik--musical-notes--inject-23" transform="translate(-9414.195 -6233.854)">
      <path id="Path_21613" data-name="Path 21613" d="M231.468,60.992a3.385,3.385,0,1,1-2.652-3.951,3.385,3.385,0,0,1,2.652,3.951Z" transform="translate(-203.996 -39.266)" fill="#ff8080"/>
      <rect id="Rectangle_5654" data-name="Rectangle 5654" width="2.581" height="17.006" transform="translate(28.111 4.509) rotate(10.77)" fill="#ff8080"/>
      <path id="Path_21614" data-name="Path 21614" d="M244.678,57.842a3.385,3.385,0,1,1-.527-2.539,3.385,3.385,0,0,1,.527,2.539Z" transform="translate(-205.53 -38.9)" fill="#ff8080"/>
      <rect id="Rectangle_5655" data-name="Rectangle 5655" width="2.581" height="17.006" transform="translate(39.785 1.72) rotate(10.77)" fill="#ff8080"/>
      <path id="Path_21615" data-name="Path 21615" d="M247.228,39.167,232.6,43.675l.424-2.236,14.628-4.5Z" transform="translate(-204.907 -36.94)" fill="#ff8080"/>
      <path id="Path_21616" data-name="Path 21616" d="M246.327,43.936l-14.637,4.5.424-2.227L246.751,41.7Z" transform="translate(-204.801 -37.493)" fill="#ff8080"/>
      <circle id="Ellipse_985" data-name="Ellipse 985" cx="1.883" cy="1.883" r="1.883" transform="translate(9.788 53.775) rotate(-11.84)" fill="#ff8080"/>
      <rect id="Rectangle_5656" data-name="Rectangle 5656" width="1.441" height="9.475" transform="matrix(0.837, 0.547, -0.547, 0.837, 17.588, 47.499)" fill="#ff8080"/>
      <path id="Path_21617" data-name="Path 21617" d="M223.678,101.373a1.883,1.883,0,1,1,.289-1.442A1.883,1.883,0,0,1,223.678,101.373Z" transform="translate(-203.472 -44.08)" fill="#ff8080"/>
      <rect id="Rectangle_5657" data-name="Rectangle 5657" width="1.441" height="9.475" transform="matrix(0.837, 0.547, -0.547, 0.837, 24.213, 48.542)" fill="#ff8080"/>
      <path id="Path_21618" data-name="Path 21618" d="M228.883,92.537l-8.5-.787.7-1.061,8.494.787Z" transform="translate(-203.488 -43.181)" fill="#ff8080"/>
      <path id="Path_21619" data-name="Path 21619" d="M227.4,94.8l-8.494-.787.689-1.061,8.5.787Z" transform="translate(-203.317 -43.444)" fill="#ff8080"/>
      <path id="Path_21620" data-name="Path 21620" d="M206.193,85.713a2.484,2.484,0,1,1-1.971-2.9,2.484,2.484,0,0,1,1.971,2.9Z" transform="translate(-201.269 -42.262)" fill="#ff8080"/>
      <rect id="Rectangle_5658" data-name="Rectangle 5658" width="1.892" height="12.48" transform="translate(5.392 30.827) rotate(10.77)" fill="#ff8080"/>
      <rect id="Rectangle_5659" data-name="Rectangle 5659" width="1.892" height="3.606" transform="translate(12.323 28.87) rotate(10.77)" fill="#ff8080"/>
      <path id="Path_21621" data-name="Path 21621" d="M216.036,70.314l-9.016,2.767.318-1.644,9.007-2.767Z" transform="translate(-201.936 -40.624)" fill="#ff8080"/>
      <path id="Path_21622" data-name="Path 21622" d="M215.367,73.805l-9.007,2.767.309-1.635,9.016-2.767Z" transform="translate(-201.86 -41.031)" fill="#ff8080"/>
    </g>
  </g>
</svg>
